M48
; DRILL file {KiCad (5.1.2)-1} date 5/17/2019 11:10:31 AM
; FORMAT={-:-/ absolute / inch / decimal}
; #@! TF.CreationDate,2019-05-17T11:10:31-07:00
; #@! TF.GenerationSoftware,Kicad,Pcbnew,(5.1.2)-1
; #@! TF.FileFunction,Plated,1,2,PTH
FMAT,2
INCH
T1C0.0157
T2C0.0394
T3C0.0472
T4C0.2402
%
G90
G05
T1
X1.5Y-2.2
X1.5Y-2.75
X1.5Y-2.9
X1.5Y-3.3
X1.5001Y-3.4501
X1.7Y-2.8
X1.75Y-2.9
X2.05Y-3.25
X2.05Y-3.5
X2.3Y-3.1
T2
X2.0Y-2.6
X2.0Y-2.7
X2.0Y-2.8
T3
X1.0872Y-2.3
X1.2843Y-2.1031
X1.2843Y-2.2016
X1.2843Y-2.3984
X1.2843Y-2.4969
X1.0872Y-2.95
X1.2843Y-2.7531
X1.2843Y-2.8516
X1.2843Y-3.0484
X1.2843Y-3.1469
X2.2031Y-2.4343
X2.3016Y-2.4343
X2.4Y-2.2372
X2.4984Y-2.4343
X2.5969Y-2.4343
T4
X1.2098Y-3.7
X1.8Y-3.7
X2.3898Y-3.7
T0
M30
