G04 #@! TF.GenerationSoftware,KiCad,Pcbnew,5.1.2-f72e74a~84~ubuntu18.04.1*
G04 #@! TF.CreationDate,2019-05-17T10:17:23-07:00*
G04 #@! TF.ProjectId,NewVNA,4e657756-4e41-42e6-9b69-6361645f7063,CAT V.2*
G04 #@! TF.SameCoordinates,Original*
G04 #@! TF.FileFunction,Paste,Top*
G04 #@! TF.FilePolarity,Positive*
%FSLAX46Y46*%
G04 Gerber Fmt 4.6, Leading zero omitted, Abs format (unit mm)*
G04 Created by KiCad (PCBNEW 5.1.2-f72e74a~84~ubuntu18.04.1) date 2019-05-17 10:17:23*
%MOMM*%
%LPD*%
G04 APERTURE LIST*
%ADD10C,0.100000*%
%ADD11C,0.600000*%
%ADD12C,0.975000*%
G04 APERTURE END LIST*
D10*
G36*
X53314703Y-52295722D02*
G01*
X53329264Y-52297882D01*
X53343543Y-52301459D01*
X53357403Y-52306418D01*
X53370710Y-52312712D01*
X53383336Y-52320280D01*
X53395159Y-52329048D01*
X53406066Y-52338934D01*
X53415952Y-52349841D01*
X53424720Y-52361664D01*
X53432288Y-52374290D01*
X53438582Y-52387597D01*
X53443541Y-52401457D01*
X53447118Y-52415736D01*
X53449278Y-52430297D01*
X53450000Y-52445000D01*
X53450000Y-52745000D01*
X53449278Y-52759703D01*
X53447118Y-52774264D01*
X53443541Y-52788543D01*
X53438582Y-52802403D01*
X53432288Y-52815710D01*
X53424720Y-52828336D01*
X53415952Y-52840159D01*
X53406066Y-52851066D01*
X53395159Y-52860952D01*
X53383336Y-52869720D01*
X53370710Y-52877288D01*
X53357403Y-52883582D01*
X53343543Y-52888541D01*
X53329264Y-52892118D01*
X53314703Y-52894278D01*
X53300000Y-52895000D01*
X51650000Y-52895000D01*
X51635297Y-52894278D01*
X51620736Y-52892118D01*
X51606457Y-52888541D01*
X51592597Y-52883582D01*
X51579290Y-52877288D01*
X51566664Y-52869720D01*
X51554841Y-52860952D01*
X51543934Y-52851066D01*
X51534048Y-52840159D01*
X51525280Y-52828336D01*
X51517712Y-52815710D01*
X51511418Y-52802403D01*
X51506459Y-52788543D01*
X51502882Y-52774264D01*
X51500722Y-52759703D01*
X51500000Y-52745000D01*
X51500000Y-52445000D01*
X51500722Y-52430297D01*
X51502882Y-52415736D01*
X51506459Y-52401457D01*
X51511418Y-52387597D01*
X51517712Y-52374290D01*
X51525280Y-52361664D01*
X51534048Y-52349841D01*
X51543934Y-52338934D01*
X51554841Y-52329048D01*
X51566664Y-52320280D01*
X51579290Y-52312712D01*
X51592597Y-52306418D01*
X51606457Y-52301459D01*
X51620736Y-52297882D01*
X51635297Y-52295722D01*
X51650000Y-52295000D01*
X53300000Y-52295000D01*
X53314703Y-52295722D01*
X53314703Y-52295722D01*
G37*
D11*
X52475000Y-52595000D03*
D10*
G36*
X53314703Y-53565722D02*
G01*
X53329264Y-53567882D01*
X53343543Y-53571459D01*
X53357403Y-53576418D01*
X53370710Y-53582712D01*
X53383336Y-53590280D01*
X53395159Y-53599048D01*
X53406066Y-53608934D01*
X53415952Y-53619841D01*
X53424720Y-53631664D01*
X53432288Y-53644290D01*
X53438582Y-53657597D01*
X53443541Y-53671457D01*
X53447118Y-53685736D01*
X53449278Y-53700297D01*
X53450000Y-53715000D01*
X53450000Y-54015000D01*
X53449278Y-54029703D01*
X53447118Y-54044264D01*
X53443541Y-54058543D01*
X53438582Y-54072403D01*
X53432288Y-54085710D01*
X53424720Y-54098336D01*
X53415952Y-54110159D01*
X53406066Y-54121066D01*
X53395159Y-54130952D01*
X53383336Y-54139720D01*
X53370710Y-54147288D01*
X53357403Y-54153582D01*
X53343543Y-54158541D01*
X53329264Y-54162118D01*
X53314703Y-54164278D01*
X53300000Y-54165000D01*
X51650000Y-54165000D01*
X51635297Y-54164278D01*
X51620736Y-54162118D01*
X51606457Y-54158541D01*
X51592597Y-54153582D01*
X51579290Y-54147288D01*
X51566664Y-54139720D01*
X51554841Y-54130952D01*
X51543934Y-54121066D01*
X51534048Y-54110159D01*
X51525280Y-54098336D01*
X51517712Y-54085710D01*
X51511418Y-54072403D01*
X51506459Y-54058543D01*
X51502882Y-54044264D01*
X51500722Y-54029703D01*
X51500000Y-54015000D01*
X51500000Y-53715000D01*
X51500722Y-53700297D01*
X51502882Y-53685736D01*
X51506459Y-53671457D01*
X51511418Y-53657597D01*
X51517712Y-53644290D01*
X51525280Y-53631664D01*
X51534048Y-53619841D01*
X51543934Y-53608934D01*
X51554841Y-53599048D01*
X51566664Y-53590280D01*
X51579290Y-53582712D01*
X51592597Y-53576418D01*
X51606457Y-53571459D01*
X51620736Y-53567882D01*
X51635297Y-53565722D01*
X51650000Y-53565000D01*
X53300000Y-53565000D01*
X53314703Y-53565722D01*
X53314703Y-53565722D01*
G37*
D11*
X52475000Y-53865000D03*
D10*
G36*
X53314703Y-54835722D02*
G01*
X53329264Y-54837882D01*
X53343543Y-54841459D01*
X53357403Y-54846418D01*
X53370710Y-54852712D01*
X53383336Y-54860280D01*
X53395159Y-54869048D01*
X53406066Y-54878934D01*
X53415952Y-54889841D01*
X53424720Y-54901664D01*
X53432288Y-54914290D01*
X53438582Y-54927597D01*
X53443541Y-54941457D01*
X53447118Y-54955736D01*
X53449278Y-54970297D01*
X53450000Y-54985000D01*
X53450000Y-55285000D01*
X53449278Y-55299703D01*
X53447118Y-55314264D01*
X53443541Y-55328543D01*
X53438582Y-55342403D01*
X53432288Y-55355710D01*
X53424720Y-55368336D01*
X53415952Y-55380159D01*
X53406066Y-55391066D01*
X53395159Y-55400952D01*
X53383336Y-55409720D01*
X53370710Y-55417288D01*
X53357403Y-55423582D01*
X53343543Y-55428541D01*
X53329264Y-55432118D01*
X53314703Y-55434278D01*
X53300000Y-55435000D01*
X51650000Y-55435000D01*
X51635297Y-55434278D01*
X51620736Y-55432118D01*
X51606457Y-55428541D01*
X51592597Y-55423582D01*
X51579290Y-55417288D01*
X51566664Y-55409720D01*
X51554841Y-55400952D01*
X51543934Y-55391066D01*
X51534048Y-55380159D01*
X51525280Y-55368336D01*
X51517712Y-55355710D01*
X51511418Y-55342403D01*
X51506459Y-55328543D01*
X51502882Y-55314264D01*
X51500722Y-55299703D01*
X51500000Y-55285000D01*
X51500000Y-54985000D01*
X51500722Y-54970297D01*
X51502882Y-54955736D01*
X51506459Y-54941457D01*
X51511418Y-54927597D01*
X51517712Y-54914290D01*
X51525280Y-54901664D01*
X51534048Y-54889841D01*
X51543934Y-54878934D01*
X51554841Y-54869048D01*
X51566664Y-54860280D01*
X51579290Y-54852712D01*
X51592597Y-54846418D01*
X51606457Y-54841459D01*
X51620736Y-54837882D01*
X51635297Y-54835722D01*
X51650000Y-54835000D01*
X53300000Y-54835000D01*
X53314703Y-54835722D01*
X53314703Y-54835722D01*
G37*
D11*
X52475000Y-55135000D03*
D10*
G36*
X53314703Y-56105722D02*
G01*
X53329264Y-56107882D01*
X53343543Y-56111459D01*
X53357403Y-56116418D01*
X53370710Y-56122712D01*
X53383336Y-56130280D01*
X53395159Y-56139048D01*
X53406066Y-56148934D01*
X53415952Y-56159841D01*
X53424720Y-56171664D01*
X53432288Y-56184290D01*
X53438582Y-56197597D01*
X53443541Y-56211457D01*
X53447118Y-56225736D01*
X53449278Y-56240297D01*
X53450000Y-56255000D01*
X53450000Y-56555000D01*
X53449278Y-56569703D01*
X53447118Y-56584264D01*
X53443541Y-56598543D01*
X53438582Y-56612403D01*
X53432288Y-56625710D01*
X53424720Y-56638336D01*
X53415952Y-56650159D01*
X53406066Y-56661066D01*
X53395159Y-56670952D01*
X53383336Y-56679720D01*
X53370710Y-56687288D01*
X53357403Y-56693582D01*
X53343543Y-56698541D01*
X53329264Y-56702118D01*
X53314703Y-56704278D01*
X53300000Y-56705000D01*
X51650000Y-56705000D01*
X51635297Y-56704278D01*
X51620736Y-56702118D01*
X51606457Y-56698541D01*
X51592597Y-56693582D01*
X51579290Y-56687288D01*
X51566664Y-56679720D01*
X51554841Y-56670952D01*
X51543934Y-56661066D01*
X51534048Y-56650159D01*
X51525280Y-56638336D01*
X51517712Y-56625710D01*
X51511418Y-56612403D01*
X51506459Y-56598543D01*
X51502882Y-56584264D01*
X51500722Y-56569703D01*
X51500000Y-56555000D01*
X51500000Y-56255000D01*
X51500722Y-56240297D01*
X51502882Y-56225736D01*
X51506459Y-56211457D01*
X51511418Y-56197597D01*
X51517712Y-56184290D01*
X51525280Y-56171664D01*
X51534048Y-56159841D01*
X51543934Y-56148934D01*
X51554841Y-56139048D01*
X51566664Y-56130280D01*
X51579290Y-56122712D01*
X51592597Y-56116418D01*
X51606457Y-56111459D01*
X51620736Y-56107882D01*
X51635297Y-56105722D01*
X51650000Y-56105000D01*
X53300000Y-56105000D01*
X53314703Y-56105722D01*
X53314703Y-56105722D01*
G37*
D11*
X52475000Y-56405000D03*
D10*
G36*
X48364703Y-56105722D02*
G01*
X48379264Y-56107882D01*
X48393543Y-56111459D01*
X48407403Y-56116418D01*
X48420710Y-56122712D01*
X48433336Y-56130280D01*
X48445159Y-56139048D01*
X48456066Y-56148934D01*
X48465952Y-56159841D01*
X48474720Y-56171664D01*
X48482288Y-56184290D01*
X48488582Y-56197597D01*
X48493541Y-56211457D01*
X48497118Y-56225736D01*
X48499278Y-56240297D01*
X48500000Y-56255000D01*
X48500000Y-56555000D01*
X48499278Y-56569703D01*
X48497118Y-56584264D01*
X48493541Y-56598543D01*
X48488582Y-56612403D01*
X48482288Y-56625710D01*
X48474720Y-56638336D01*
X48465952Y-56650159D01*
X48456066Y-56661066D01*
X48445159Y-56670952D01*
X48433336Y-56679720D01*
X48420710Y-56687288D01*
X48407403Y-56693582D01*
X48393543Y-56698541D01*
X48379264Y-56702118D01*
X48364703Y-56704278D01*
X48350000Y-56705000D01*
X46700000Y-56705000D01*
X46685297Y-56704278D01*
X46670736Y-56702118D01*
X46656457Y-56698541D01*
X46642597Y-56693582D01*
X46629290Y-56687288D01*
X46616664Y-56679720D01*
X46604841Y-56670952D01*
X46593934Y-56661066D01*
X46584048Y-56650159D01*
X46575280Y-56638336D01*
X46567712Y-56625710D01*
X46561418Y-56612403D01*
X46556459Y-56598543D01*
X46552882Y-56584264D01*
X46550722Y-56569703D01*
X46550000Y-56555000D01*
X46550000Y-56255000D01*
X46550722Y-56240297D01*
X46552882Y-56225736D01*
X46556459Y-56211457D01*
X46561418Y-56197597D01*
X46567712Y-56184290D01*
X46575280Y-56171664D01*
X46584048Y-56159841D01*
X46593934Y-56148934D01*
X46604841Y-56139048D01*
X46616664Y-56130280D01*
X46629290Y-56122712D01*
X46642597Y-56116418D01*
X46656457Y-56111459D01*
X46670736Y-56107882D01*
X46685297Y-56105722D01*
X46700000Y-56105000D01*
X48350000Y-56105000D01*
X48364703Y-56105722D01*
X48364703Y-56105722D01*
G37*
D11*
X47525000Y-56405000D03*
D10*
G36*
X48364703Y-54835722D02*
G01*
X48379264Y-54837882D01*
X48393543Y-54841459D01*
X48407403Y-54846418D01*
X48420710Y-54852712D01*
X48433336Y-54860280D01*
X48445159Y-54869048D01*
X48456066Y-54878934D01*
X48465952Y-54889841D01*
X48474720Y-54901664D01*
X48482288Y-54914290D01*
X48488582Y-54927597D01*
X48493541Y-54941457D01*
X48497118Y-54955736D01*
X48499278Y-54970297D01*
X48500000Y-54985000D01*
X48500000Y-55285000D01*
X48499278Y-55299703D01*
X48497118Y-55314264D01*
X48493541Y-55328543D01*
X48488582Y-55342403D01*
X48482288Y-55355710D01*
X48474720Y-55368336D01*
X48465952Y-55380159D01*
X48456066Y-55391066D01*
X48445159Y-55400952D01*
X48433336Y-55409720D01*
X48420710Y-55417288D01*
X48407403Y-55423582D01*
X48393543Y-55428541D01*
X48379264Y-55432118D01*
X48364703Y-55434278D01*
X48350000Y-55435000D01*
X46700000Y-55435000D01*
X46685297Y-55434278D01*
X46670736Y-55432118D01*
X46656457Y-55428541D01*
X46642597Y-55423582D01*
X46629290Y-55417288D01*
X46616664Y-55409720D01*
X46604841Y-55400952D01*
X46593934Y-55391066D01*
X46584048Y-55380159D01*
X46575280Y-55368336D01*
X46567712Y-55355710D01*
X46561418Y-55342403D01*
X46556459Y-55328543D01*
X46552882Y-55314264D01*
X46550722Y-55299703D01*
X46550000Y-55285000D01*
X46550000Y-54985000D01*
X46550722Y-54970297D01*
X46552882Y-54955736D01*
X46556459Y-54941457D01*
X46561418Y-54927597D01*
X46567712Y-54914290D01*
X46575280Y-54901664D01*
X46584048Y-54889841D01*
X46593934Y-54878934D01*
X46604841Y-54869048D01*
X46616664Y-54860280D01*
X46629290Y-54852712D01*
X46642597Y-54846418D01*
X46656457Y-54841459D01*
X46670736Y-54837882D01*
X46685297Y-54835722D01*
X46700000Y-54835000D01*
X48350000Y-54835000D01*
X48364703Y-54835722D01*
X48364703Y-54835722D01*
G37*
D11*
X47525000Y-55135000D03*
D10*
G36*
X48364703Y-53565722D02*
G01*
X48379264Y-53567882D01*
X48393543Y-53571459D01*
X48407403Y-53576418D01*
X48420710Y-53582712D01*
X48433336Y-53590280D01*
X48445159Y-53599048D01*
X48456066Y-53608934D01*
X48465952Y-53619841D01*
X48474720Y-53631664D01*
X48482288Y-53644290D01*
X48488582Y-53657597D01*
X48493541Y-53671457D01*
X48497118Y-53685736D01*
X48499278Y-53700297D01*
X48500000Y-53715000D01*
X48500000Y-54015000D01*
X48499278Y-54029703D01*
X48497118Y-54044264D01*
X48493541Y-54058543D01*
X48488582Y-54072403D01*
X48482288Y-54085710D01*
X48474720Y-54098336D01*
X48465952Y-54110159D01*
X48456066Y-54121066D01*
X48445159Y-54130952D01*
X48433336Y-54139720D01*
X48420710Y-54147288D01*
X48407403Y-54153582D01*
X48393543Y-54158541D01*
X48379264Y-54162118D01*
X48364703Y-54164278D01*
X48350000Y-54165000D01*
X46700000Y-54165000D01*
X46685297Y-54164278D01*
X46670736Y-54162118D01*
X46656457Y-54158541D01*
X46642597Y-54153582D01*
X46629290Y-54147288D01*
X46616664Y-54139720D01*
X46604841Y-54130952D01*
X46593934Y-54121066D01*
X46584048Y-54110159D01*
X46575280Y-54098336D01*
X46567712Y-54085710D01*
X46561418Y-54072403D01*
X46556459Y-54058543D01*
X46552882Y-54044264D01*
X46550722Y-54029703D01*
X46550000Y-54015000D01*
X46550000Y-53715000D01*
X46550722Y-53700297D01*
X46552882Y-53685736D01*
X46556459Y-53671457D01*
X46561418Y-53657597D01*
X46567712Y-53644290D01*
X46575280Y-53631664D01*
X46584048Y-53619841D01*
X46593934Y-53608934D01*
X46604841Y-53599048D01*
X46616664Y-53590280D01*
X46629290Y-53582712D01*
X46642597Y-53576418D01*
X46656457Y-53571459D01*
X46670736Y-53567882D01*
X46685297Y-53565722D01*
X46700000Y-53565000D01*
X48350000Y-53565000D01*
X48364703Y-53565722D01*
X48364703Y-53565722D01*
G37*
D11*
X47525000Y-53865000D03*
D10*
G36*
X48364703Y-52295722D02*
G01*
X48379264Y-52297882D01*
X48393543Y-52301459D01*
X48407403Y-52306418D01*
X48420710Y-52312712D01*
X48433336Y-52320280D01*
X48445159Y-52329048D01*
X48456066Y-52338934D01*
X48465952Y-52349841D01*
X48474720Y-52361664D01*
X48482288Y-52374290D01*
X48488582Y-52387597D01*
X48493541Y-52401457D01*
X48497118Y-52415736D01*
X48499278Y-52430297D01*
X48500000Y-52445000D01*
X48500000Y-52745000D01*
X48499278Y-52759703D01*
X48497118Y-52774264D01*
X48493541Y-52788543D01*
X48488582Y-52802403D01*
X48482288Y-52815710D01*
X48474720Y-52828336D01*
X48465952Y-52840159D01*
X48456066Y-52851066D01*
X48445159Y-52860952D01*
X48433336Y-52869720D01*
X48420710Y-52877288D01*
X48407403Y-52883582D01*
X48393543Y-52888541D01*
X48379264Y-52892118D01*
X48364703Y-52894278D01*
X48350000Y-52895000D01*
X46700000Y-52895000D01*
X46685297Y-52894278D01*
X46670736Y-52892118D01*
X46656457Y-52888541D01*
X46642597Y-52883582D01*
X46629290Y-52877288D01*
X46616664Y-52869720D01*
X46604841Y-52860952D01*
X46593934Y-52851066D01*
X46584048Y-52840159D01*
X46575280Y-52828336D01*
X46567712Y-52815710D01*
X46561418Y-52802403D01*
X46556459Y-52788543D01*
X46552882Y-52774264D01*
X46550722Y-52759703D01*
X46550000Y-52745000D01*
X46550000Y-52445000D01*
X46550722Y-52430297D01*
X46552882Y-52415736D01*
X46556459Y-52401457D01*
X46561418Y-52387597D01*
X46567712Y-52374290D01*
X46575280Y-52361664D01*
X46584048Y-52349841D01*
X46593934Y-52338934D01*
X46604841Y-52329048D01*
X46616664Y-52320280D01*
X46629290Y-52312712D01*
X46642597Y-52306418D01*
X46656457Y-52301459D01*
X46670736Y-52297882D01*
X46685297Y-52295722D01*
X46700000Y-52295000D01*
X48350000Y-52295000D01*
X48364703Y-52295722D01*
X48364703Y-52295722D01*
G37*
D11*
X47525000Y-52595000D03*
D10*
G36*
X54830142Y-48301174D02*
G01*
X54853803Y-48304684D01*
X54877007Y-48310496D01*
X54899529Y-48318554D01*
X54921153Y-48328782D01*
X54941670Y-48341079D01*
X54960883Y-48355329D01*
X54978607Y-48371393D01*
X54994671Y-48389117D01*
X55008921Y-48408330D01*
X55021218Y-48428847D01*
X55031446Y-48450471D01*
X55039504Y-48472993D01*
X55045316Y-48496197D01*
X55048826Y-48519858D01*
X55050000Y-48543750D01*
X55050000Y-49456250D01*
X55048826Y-49480142D01*
X55045316Y-49503803D01*
X55039504Y-49527007D01*
X55031446Y-49549529D01*
X55021218Y-49571153D01*
X55008921Y-49591670D01*
X54994671Y-49610883D01*
X54978607Y-49628607D01*
X54960883Y-49644671D01*
X54941670Y-49658921D01*
X54921153Y-49671218D01*
X54899529Y-49681446D01*
X54877007Y-49689504D01*
X54853803Y-49695316D01*
X54830142Y-49698826D01*
X54806250Y-49700000D01*
X54318750Y-49700000D01*
X54294858Y-49698826D01*
X54271197Y-49695316D01*
X54247993Y-49689504D01*
X54225471Y-49681446D01*
X54203847Y-49671218D01*
X54183330Y-49658921D01*
X54164117Y-49644671D01*
X54146393Y-49628607D01*
X54130329Y-49610883D01*
X54116079Y-49591670D01*
X54103782Y-49571153D01*
X54093554Y-49549529D01*
X54085496Y-49527007D01*
X54079684Y-49503803D01*
X54076174Y-49480142D01*
X54075000Y-49456250D01*
X54075000Y-48543750D01*
X54076174Y-48519858D01*
X54079684Y-48496197D01*
X54085496Y-48472993D01*
X54093554Y-48450471D01*
X54103782Y-48428847D01*
X54116079Y-48408330D01*
X54130329Y-48389117D01*
X54146393Y-48371393D01*
X54164117Y-48355329D01*
X54183330Y-48341079D01*
X54203847Y-48328782D01*
X54225471Y-48318554D01*
X54247993Y-48310496D01*
X54271197Y-48304684D01*
X54294858Y-48301174D01*
X54318750Y-48300000D01*
X54806250Y-48300000D01*
X54830142Y-48301174D01*
X54830142Y-48301174D01*
G37*
D12*
X54562500Y-49000000D03*
D10*
G36*
X56705142Y-48301174D02*
G01*
X56728803Y-48304684D01*
X56752007Y-48310496D01*
X56774529Y-48318554D01*
X56796153Y-48328782D01*
X56816670Y-48341079D01*
X56835883Y-48355329D01*
X56853607Y-48371393D01*
X56869671Y-48389117D01*
X56883921Y-48408330D01*
X56896218Y-48428847D01*
X56906446Y-48450471D01*
X56914504Y-48472993D01*
X56920316Y-48496197D01*
X56923826Y-48519858D01*
X56925000Y-48543750D01*
X56925000Y-49456250D01*
X56923826Y-49480142D01*
X56920316Y-49503803D01*
X56914504Y-49527007D01*
X56906446Y-49549529D01*
X56896218Y-49571153D01*
X56883921Y-49591670D01*
X56869671Y-49610883D01*
X56853607Y-49628607D01*
X56835883Y-49644671D01*
X56816670Y-49658921D01*
X56796153Y-49671218D01*
X56774529Y-49681446D01*
X56752007Y-49689504D01*
X56728803Y-49695316D01*
X56705142Y-49698826D01*
X56681250Y-49700000D01*
X56193750Y-49700000D01*
X56169858Y-49698826D01*
X56146197Y-49695316D01*
X56122993Y-49689504D01*
X56100471Y-49681446D01*
X56078847Y-49671218D01*
X56058330Y-49658921D01*
X56039117Y-49644671D01*
X56021393Y-49628607D01*
X56005329Y-49610883D01*
X55991079Y-49591670D01*
X55978782Y-49571153D01*
X55968554Y-49549529D01*
X55960496Y-49527007D01*
X55954684Y-49503803D01*
X55951174Y-49480142D01*
X55950000Y-49456250D01*
X55950000Y-48543750D01*
X55951174Y-48519858D01*
X55954684Y-48496197D01*
X55960496Y-48472993D01*
X55968554Y-48450471D01*
X55978782Y-48428847D01*
X55991079Y-48408330D01*
X56005329Y-48389117D01*
X56021393Y-48371393D01*
X56039117Y-48355329D01*
X56058330Y-48341079D01*
X56078847Y-48328782D01*
X56100471Y-48318554D01*
X56122993Y-48310496D01*
X56146197Y-48304684D01*
X56169858Y-48301174D01*
X56193750Y-48300000D01*
X56681250Y-48300000D01*
X56705142Y-48301174D01*
X56705142Y-48301174D01*
G37*
D12*
X56437500Y-49000000D03*
D10*
G36*
X53480142Y-31451174D02*
G01*
X53503803Y-31454684D01*
X53527007Y-31460496D01*
X53549529Y-31468554D01*
X53571153Y-31478782D01*
X53591670Y-31491079D01*
X53610883Y-31505329D01*
X53628607Y-31521393D01*
X53644671Y-31539117D01*
X53658921Y-31558330D01*
X53671218Y-31578847D01*
X53681446Y-31600471D01*
X53689504Y-31622993D01*
X53695316Y-31646197D01*
X53698826Y-31669858D01*
X53700000Y-31693750D01*
X53700000Y-32181250D01*
X53698826Y-32205142D01*
X53695316Y-32228803D01*
X53689504Y-32252007D01*
X53681446Y-32274529D01*
X53671218Y-32296153D01*
X53658921Y-32316670D01*
X53644671Y-32335883D01*
X53628607Y-32353607D01*
X53610883Y-32369671D01*
X53591670Y-32383921D01*
X53571153Y-32396218D01*
X53549529Y-32406446D01*
X53527007Y-32414504D01*
X53503803Y-32420316D01*
X53480142Y-32423826D01*
X53456250Y-32425000D01*
X52543750Y-32425000D01*
X52519858Y-32423826D01*
X52496197Y-32420316D01*
X52472993Y-32414504D01*
X52450471Y-32406446D01*
X52428847Y-32396218D01*
X52408330Y-32383921D01*
X52389117Y-32369671D01*
X52371393Y-32353607D01*
X52355329Y-32335883D01*
X52341079Y-32316670D01*
X52328782Y-32296153D01*
X52318554Y-32274529D01*
X52310496Y-32252007D01*
X52304684Y-32228803D01*
X52301174Y-32205142D01*
X52300000Y-32181250D01*
X52300000Y-31693750D01*
X52301174Y-31669858D01*
X52304684Y-31646197D01*
X52310496Y-31622993D01*
X52318554Y-31600471D01*
X52328782Y-31578847D01*
X52341079Y-31558330D01*
X52355329Y-31539117D01*
X52371393Y-31521393D01*
X52389117Y-31505329D01*
X52408330Y-31491079D01*
X52428847Y-31478782D01*
X52450471Y-31468554D01*
X52472993Y-31460496D01*
X52496197Y-31454684D01*
X52519858Y-31451174D01*
X52543750Y-31450000D01*
X53456250Y-31450000D01*
X53480142Y-31451174D01*
X53480142Y-31451174D01*
G37*
D12*
X53000000Y-31937500D03*
D10*
G36*
X53480142Y-29576174D02*
G01*
X53503803Y-29579684D01*
X53527007Y-29585496D01*
X53549529Y-29593554D01*
X53571153Y-29603782D01*
X53591670Y-29616079D01*
X53610883Y-29630329D01*
X53628607Y-29646393D01*
X53644671Y-29664117D01*
X53658921Y-29683330D01*
X53671218Y-29703847D01*
X53681446Y-29725471D01*
X53689504Y-29747993D01*
X53695316Y-29771197D01*
X53698826Y-29794858D01*
X53700000Y-29818750D01*
X53700000Y-30306250D01*
X53698826Y-30330142D01*
X53695316Y-30353803D01*
X53689504Y-30377007D01*
X53681446Y-30399529D01*
X53671218Y-30421153D01*
X53658921Y-30441670D01*
X53644671Y-30460883D01*
X53628607Y-30478607D01*
X53610883Y-30494671D01*
X53591670Y-30508921D01*
X53571153Y-30521218D01*
X53549529Y-30531446D01*
X53527007Y-30539504D01*
X53503803Y-30545316D01*
X53480142Y-30548826D01*
X53456250Y-30550000D01*
X52543750Y-30550000D01*
X52519858Y-30548826D01*
X52496197Y-30545316D01*
X52472993Y-30539504D01*
X52450471Y-30531446D01*
X52428847Y-30521218D01*
X52408330Y-30508921D01*
X52389117Y-30494671D01*
X52371393Y-30478607D01*
X52355329Y-30460883D01*
X52341079Y-30441670D01*
X52328782Y-30421153D01*
X52318554Y-30399529D01*
X52310496Y-30377007D01*
X52304684Y-30353803D01*
X52301174Y-30330142D01*
X52300000Y-30306250D01*
X52300000Y-29818750D01*
X52301174Y-29794858D01*
X52304684Y-29771197D01*
X52310496Y-29747993D01*
X52318554Y-29725471D01*
X52328782Y-29703847D01*
X52341079Y-29683330D01*
X52355329Y-29664117D01*
X52371393Y-29646393D01*
X52389117Y-29630329D01*
X52408330Y-29616079D01*
X52428847Y-29603782D01*
X52450471Y-29593554D01*
X52472993Y-29585496D01*
X52496197Y-29579684D01*
X52519858Y-29576174D01*
X52543750Y-29575000D01*
X53456250Y-29575000D01*
X53480142Y-29576174D01*
X53480142Y-29576174D01*
G37*
D12*
X53000000Y-30062500D03*
D10*
G36*
X53480142Y-45451174D02*
G01*
X53503803Y-45454684D01*
X53527007Y-45460496D01*
X53549529Y-45468554D01*
X53571153Y-45478782D01*
X53591670Y-45491079D01*
X53610883Y-45505329D01*
X53628607Y-45521393D01*
X53644671Y-45539117D01*
X53658921Y-45558330D01*
X53671218Y-45578847D01*
X53681446Y-45600471D01*
X53689504Y-45622993D01*
X53695316Y-45646197D01*
X53698826Y-45669858D01*
X53700000Y-45693750D01*
X53700000Y-46181250D01*
X53698826Y-46205142D01*
X53695316Y-46228803D01*
X53689504Y-46252007D01*
X53681446Y-46274529D01*
X53671218Y-46296153D01*
X53658921Y-46316670D01*
X53644671Y-46335883D01*
X53628607Y-46353607D01*
X53610883Y-46369671D01*
X53591670Y-46383921D01*
X53571153Y-46396218D01*
X53549529Y-46406446D01*
X53527007Y-46414504D01*
X53503803Y-46420316D01*
X53480142Y-46423826D01*
X53456250Y-46425000D01*
X52543750Y-46425000D01*
X52519858Y-46423826D01*
X52496197Y-46420316D01*
X52472993Y-46414504D01*
X52450471Y-46406446D01*
X52428847Y-46396218D01*
X52408330Y-46383921D01*
X52389117Y-46369671D01*
X52371393Y-46353607D01*
X52355329Y-46335883D01*
X52341079Y-46316670D01*
X52328782Y-46296153D01*
X52318554Y-46274529D01*
X52310496Y-46252007D01*
X52304684Y-46228803D01*
X52301174Y-46205142D01*
X52300000Y-46181250D01*
X52300000Y-45693750D01*
X52301174Y-45669858D01*
X52304684Y-45646197D01*
X52310496Y-45622993D01*
X52318554Y-45600471D01*
X52328782Y-45578847D01*
X52341079Y-45558330D01*
X52355329Y-45539117D01*
X52371393Y-45521393D01*
X52389117Y-45505329D01*
X52408330Y-45491079D01*
X52428847Y-45478782D01*
X52450471Y-45468554D01*
X52472993Y-45460496D01*
X52496197Y-45454684D01*
X52519858Y-45451174D01*
X52543750Y-45450000D01*
X53456250Y-45450000D01*
X53480142Y-45451174D01*
X53480142Y-45451174D01*
G37*
D12*
X53000000Y-45937500D03*
D10*
G36*
X53480142Y-43576174D02*
G01*
X53503803Y-43579684D01*
X53527007Y-43585496D01*
X53549529Y-43593554D01*
X53571153Y-43603782D01*
X53591670Y-43616079D01*
X53610883Y-43630329D01*
X53628607Y-43646393D01*
X53644671Y-43664117D01*
X53658921Y-43683330D01*
X53671218Y-43703847D01*
X53681446Y-43725471D01*
X53689504Y-43747993D01*
X53695316Y-43771197D01*
X53698826Y-43794858D01*
X53700000Y-43818750D01*
X53700000Y-44306250D01*
X53698826Y-44330142D01*
X53695316Y-44353803D01*
X53689504Y-44377007D01*
X53681446Y-44399529D01*
X53671218Y-44421153D01*
X53658921Y-44441670D01*
X53644671Y-44460883D01*
X53628607Y-44478607D01*
X53610883Y-44494671D01*
X53591670Y-44508921D01*
X53571153Y-44521218D01*
X53549529Y-44531446D01*
X53527007Y-44539504D01*
X53503803Y-44545316D01*
X53480142Y-44548826D01*
X53456250Y-44550000D01*
X52543750Y-44550000D01*
X52519858Y-44548826D01*
X52496197Y-44545316D01*
X52472993Y-44539504D01*
X52450471Y-44531446D01*
X52428847Y-44521218D01*
X52408330Y-44508921D01*
X52389117Y-44494671D01*
X52371393Y-44478607D01*
X52355329Y-44460883D01*
X52341079Y-44441670D01*
X52328782Y-44421153D01*
X52318554Y-44399529D01*
X52310496Y-44377007D01*
X52304684Y-44353803D01*
X52301174Y-44330142D01*
X52300000Y-44306250D01*
X52300000Y-43818750D01*
X52301174Y-43794858D01*
X52304684Y-43771197D01*
X52310496Y-43747993D01*
X52318554Y-43725471D01*
X52328782Y-43703847D01*
X52341079Y-43683330D01*
X52355329Y-43664117D01*
X52371393Y-43646393D01*
X52389117Y-43630329D01*
X52408330Y-43616079D01*
X52428847Y-43603782D01*
X52450471Y-43593554D01*
X52472993Y-43585496D01*
X52496197Y-43579684D01*
X52519858Y-43576174D01*
X52543750Y-43575000D01*
X53456250Y-43575000D01*
X53480142Y-43576174D01*
X53480142Y-43576174D01*
G37*
D12*
X53000000Y-44062500D03*
D10*
G36*
X47480142Y-45451174D02*
G01*
X47503803Y-45454684D01*
X47527007Y-45460496D01*
X47549529Y-45468554D01*
X47571153Y-45478782D01*
X47591670Y-45491079D01*
X47610883Y-45505329D01*
X47628607Y-45521393D01*
X47644671Y-45539117D01*
X47658921Y-45558330D01*
X47671218Y-45578847D01*
X47681446Y-45600471D01*
X47689504Y-45622993D01*
X47695316Y-45646197D01*
X47698826Y-45669858D01*
X47700000Y-45693750D01*
X47700000Y-46181250D01*
X47698826Y-46205142D01*
X47695316Y-46228803D01*
X47689504Y-46252007D01*
X47681446Y-46274529D01*
X47671218Y-46296153D01*
X47658921Y-46316670D01*
X47644671Y-46335883D01*
X47628607Y-46353607D01*
X47610883Y-46369671D01*
X47591670Y-46383921D01*
X47571153Y-46396218D01*
X47549529Y-46406446D01*
X47527007Y-46414504D01*
X47503803Y-46420316D01*
X47480142Y-46423826D01*
X47456250Y-46425000D01*
X46543750Y-46425000D01*
X46519858Y-46423826D01*
X46496197Y-46420316D01*
X46472993Y-46414504D01*
X46450471Y-46406446D01*
X46428847Y-46396218D01*
X46408330Y-46383921D01*
X46389117Y-46369671D01*
X46371393Y-46353607D01*
X46355329Y-46335883D01*
X46341079Y-46316670D01*
X46328782Y-46296153D01*
X46318554Y-46274529D01*
X46310496Y-46252007D01*
X46304684Y-46228803D01*
X46301174Y-46205142D01*
X46300000Y-46181250D01*
X46300000Y-45693750D01*
X46301174Y-45669858D01*
X46304684Y-45646197D01*
X46310496Y-45622993D01*
X46318554Y-45600471D01*
X46328782Y-45578847D01*
X46341079Y-45558330D01*
X46355329Y-45539117D01*
X46371393Y-45521393D01*
X46389117Y-45505329D01*
X46408330Y-45491079D01*
X46428847Y-45478782D01*
X46450471Y-45468554D01*
X46472993Y-45460496D01*
X46496197Y-45454684D01*
X46519858Y-45451174D01*
X46543750Y-45450000D01*
X47456250Y-45450000D01*
X47480142Y-45451174D01*
X47480142Y-45451174D01*
G37*
D12*
X47000000Y-45937500D03*
D10*
G36*
X47480142Y-43576174D02*
G01*
X47503803Y-43579684D01*
X47527007Y-43585496D01*
X47549529Y-43593554D01*
X47571153Y-43603782D01*
X47591670Y-43616079D01*
X47610883Y-43630329D01*
X47628607Y-43646393D01*
X47644671Y-43664117D01*
X47658921Y-43683330D01*
X47671218Y-43703847D01*
X47681446Y-43725471D01*
X47689504Y-43747993D01*
X47695316Y-43771197D01*
X47698826Y-43794858D01*
X47700000Y-43818750D01*
X47700000Y-44306250D01*
X47698826Y-44330142D01*
X47695316Y-44353803D01*
X47689504Y-44377007D01*
X47681446Y-44399529D01*
X47671218Y-44421153D01*
X47658921Y-44441670D01*
X47644671Y-44460883D01*
X47628607Y-44478607D01*
X47610883Y-44494671D01*
X47591670Y-44508921D01*
X47571153Y-44521218D01*
X47549529Y-44531446D01*
X47527007Y-44539504D01*
X47503803Y-44545316D01*
X47480142Y-44548826D01*
X47456250Y-44550000D01*
X46543750Y-44550000D01*
X46519858Y-44548826D01*
X46496197Y-44545316D01*
X46472993Y-44539504D01*
X46450471Y-44531446D01*
X46428847Y-44521218D01*
X46408330Y-44508921D01*
X46389117Y-44494671D01*
X46371393Y-44478607D01*
X46355329Y-44460883D01*
X46341079Y-44441670D01*
X46328782Y-44421153D01*
X46318554Y-44399529D01*
X46310496Y-44377007D01*
X46304684Y-44353803D01*
X46301174Y-44330142D01*
X46300000Y-44306250D01*
X46300000Y-43818750D01*
X46301174Y-43794858D01*
X46304684Y-43771197D01*
X46310496Y-43747993D01*
X46318554Y-43725471D01*
X46328782Y-43703847D01*
X46341079Y-43683330D01*
X46355329Y-43664117D01*
X46371393Y-43646393D01*
X46389117Y-43630329D01*
X46408330Y-43616079D01*
X46428847Y-43603782D01*
X46450471Y-43593554D01*
X46472993Y-43585496D01*
X46496197Y-43579684D01*
X46519858Y-43576174D01*
X46543750Y-43575000D01*
X47456250Y-43575000D01*
X47480142Y-43576174D01*
X47480142Y-43576174D01*
G37*
D12*
X47000000Y-44062500D03*
D10*
G36*
X47480142Y-38951174D02*
G01*
X47503803Y-38954684D01*
X47527007Y-38960496D01*
X47549529Y-38968554D01*
X47571153Y-38978782D01*
X47591670Y-38991079D01*
X47610883Y-39005329D01*
X47628607Y-39021393D01*
X47644671Y-39039117D01*
X47658921Y-39058330D01*
X47671218Y-39078847D01*
X47681446Y-39100471D01*
X47689504Y-39122993D01*
X47695316Y-39146197D01*
X47698826Y-39169858D01*
X47700000Y-39193750D01*
X47700000Y-39681250D01*
X47698826Y-39705142D01*
X47695316Y-39728803D01*
X47689504Y-39752007D01*
X47681446Y-39774529D01*
X47671218Y-39796153D01*
X47658921Y-39816670D01*
X47644671Y-39835883D01*
X47628607Y-39853607D01*
X47610883Y-39869671D01*
X47591670Y-39883921D01*
X47571153Y-39896218D01*
X47549529Y-39906446D01*
X47527007Y-39914504D01*
X47503803Y-39920316D01*
X47480142Y-39923826D01*
X47456250Y-39925000D01*
X46543750Y-39925000D01*
X46519858Y-39923826D01*
X46496197Y-39920316D01*
X46472993Y-39914504D01*
X46450471Y-39906446D01*
X46428847Y-39896218D01*
X46408330Y-39883921D01*
X46389117Y-39869671D01*
X46371393Y-39853607D01*
X46355329Y-39835883D01*
X46341079Y-39816670D01*
X46328782Y-39796153D01*
X46318554Y-39774529D01*
X46310496Y-39752007D01*
X46304684Y-39728803D01*
X46301174Y-39705142D01*
X46300000Y-39681250D01*
X46300000Y-39193750D01*
X46301174Y-39169858D01*
X46304684Y-39146197D01*
X46310496Y-39122993D01*
X46318554Y-39100471D01*
X46328782Y-39078847D01*
X46341079Y-39058330D01*
X46355329Y-39039117D01*
X46371393Y-39021393D01*
X46389117Y-39005329D01*
X46408330Y-38991079D01*
X46428847Y-38978782D01*
X46450471Y-38968554D01*
X46472993Y-38960496D01*
X46496197Y-38954684D01*
X46519858Y-38951174D01*
X46543750Y-38950000D01*
X47456250Y-38950000D01*
X47480142Y-38951174D01*
X47480142Y-38951174D01*
G37*
D12*
X47000000Y-39437500D03*
D10*
G36*
X47480142Y-37076174D02*
G01*
X47503803Y-37079684D01*
X47527007Y-37085496D01*
X47549529Y-37093554D01*
X47571153Y-37103782D01*
X47591670Y-37116079D01*
X47610883Y-37130329D01*
X47628607Y-37146393D01*
X47644671Y-37164117D01*
X47658921Y-37183330D01*
X47671218Y-37203847D01*
X47681446Y-37225471D01*
X47689504Y-37247993D01*
X47695316Y-37271197D01*
X47698826Y-37294858D01*
X47700000Y-37318750D01*
X47700000Y-37806250D01*
X47698826Y-37830142D01*
X47695316Y-37853803D01*
X47689504Y-37877007D01*
X47681446Y-37899529D01*
X47671218Y-37921153D01*
X47658921Y-37941670D01*
X47644671Y-37960883D01*
X47628607Y-37978607D01*
X47610883Y-37994671D01*
X47591670Y-38008921D01*
X47571153Y-38021218D01*
X47549529Y-38031446D01*
X47527007Y-38039504D01*
X47503803Y-38045316D01*
X47480142Y-38048826D01*
X47456250Y-38050000D01*
X46543750Y-38050000D01*
X46519858Y-38048826D01*
X46496197Y-38045316D01*
X46472993Y-38039504D01*
X46450471Y-38031446D01*
X46428847Y-38021218D01*
X46408330Y-38008921D01*
X46389117Y-37994671D01*
X46371393Y-37978607D01*
X46355329Y-37960883D01*
X46341079Y-37941670D01*
X46328782Y-37921153D01*
X46318554Y-37899529D01*
X46310496Y-37877007D01*
X46304684Y-37853803D01*
X46301174Y-37830142D01*
X46300000Y-37806250D01*
X46300000Y-37318750D01*
X46301174Y-37294858D01*
X46304684Y-37271197D01*
X46310496Y-37247993D01*
X46318554Y-37225471D01*
X46328782Y-37203847D01*
X46341079Y-37183330D01*
X46355329Y-37164117D01*
X46371393Y-37146393D01*
X46389117Y-37130329D01*
X46408330Y-37116079D01*
X46428847Y-37103782D01*
X46450471Y-37093554D01*
X46472993Y-37085496D01*
X46496197Y-37079684D01*
X46519858Y-37076174D01*
X46543750Y-37075000D01*
X47456250Y-37075000D01*
X47480142Y-37076174D01*
X47480142Y-37076174D01*
G37*
D12*
X47000000Y-37562500D03*
D10*
G36*
X47480142Y-31451174D02*
G01*
X47503803Y-31454684D01*
X47527007Y-31460496D01*
X47549529Y-31468554D01*
X47571153Y-31478782D01*
X47591670Y-31491079D01*
X47610883Y-31505329D01*
X47628607Y-31521393D01*
X47644671Y-31539117D01*
X47658921Y-31558330D01*
X47671218Y-31578847D01*
X47681446Y-31600471D01*
X47689504Y-31622993D01*
X47695316Y-31646197D01*
X47698826Y-31669858D01*
X47700000Y-31693750D01*
X47700000Y-32181250D01*
X47698826Y-32205142D01*
X47695316Y-32228803D01*
X47689504Y-32252007D01*
X47681446Y-32274529D01*
X47671218Y-32296153D01*
X47658921Y-32316670D01*
X47644671Y-32335883D01*
X47628607Y-32353607D01*
X47610883Y-32369671D01*
X47591670Y-32383921D01*
X47571153Y-32396218D01*
X47549529Y-32406446D01*
X47527007Y-32414504D01*
X47503803Y-32420316D01*
X47480142Y-32423826D01*
X47456250Y-32425000D01*
X46543750Y-32425000D01*
X46519858Y-32423826D01*
X46496197Y-32420316D01*
X46472993Y-32414504D01*
X46450471Y-32406446D01*
X46428847Y-32396218D01*
X46408330Y-32383921D01*
X46389117Y-32369671D01*
X46371393Y-32353607D01*
X46355329Y-32335883D01*
X46341079Y-32316670D01*
X46328782Y-32296153D01*
X46318554Y-32274529D01*
X46310496Y-32252007D01*
X46304684Y-32228803D01*
X46301174Y-32205142D01*
X46300000Y-32181250D01*
X46300000Y-31693750D01*
X46301174Y-31669858D01*
X46304684Y-31646197D01*
X46310496Y-31622993D01*
X46318554Y-31600471D01*
X46328782Y-31578847D01*
X46341079Y-31558330D01*
X46355329Y-31539117D01*
X46371393Y-31521393D01*
X46389117Y-31505329D01*
X46408330Y-31491079D01*
X46428847Y-31478782D01*
X46450471Y-31468554D01*
X46472993Y-31460496D01*
X46496197Y-31454684D01*
X46519858Y-31451174D01*
X46543750Y-31450000D01*
X47456250Y-31450000D01*
X47480142Y-31451174D01*
X47480142Y-31451174D01*
G37*
D12*
X47000000Y-31937500D03*
D10*
G36*
X47480142Y-29576174D02*
G01*
X47503803Y-29579684D01*
X47527007Y-29585496D01*
X47549529Y-29593554D01*
X47571153Y-29603782D01*
X47591670Y-29616079D01*
X47610883Y-29630329D01*
X47628607Y-29646393D01*
X47644671Y-29664117D01*
X47658921Y-29683330D01*
X47671218Y-29703847D01*
X47681446Y-29725471D01*
X47689504Y-29747993D01*
X47695316Y-29771197D01*
X47698826Y-29794858D01*
X47700000Y-29818750D01*
X47700000Y-30306250D01*
X47698826Y-30330142D01*
X47695316Y-30353803D01*
X47689504Y-30377007D01*
X47681446Y-30399529D01*
X47671218Y-30421153D01*
X47658921Y-30441670D01*
X47644671Y-30460883D01*
X47628607Y-30478607D01*
X47610883Y-30494671D01*
X47591670Y-30508921D01*
X47571153Y-30521218D01*
X47549529Y-30531446D01*
X47527007Y-30539504D01*
X47503803Y-30545316D01*
X47480142Y-30548826D01*
X47456250Y-30550000D01*
X46543750Y-30550000D01*
X46519858Y-30548826D01*
X46496197Y-30545316D01*
X46472993Y-30539504D01*
X46450471Y-30531446D01*
X46428847Y-30521218D01*
X46408330Y-30508921D01*
X46389117Y-30494671D01*
X46371393Y-30478607D01*
X46355329Y-30460883D01*
X46341079Y-30441670D01*
X46328782Y-30421153D01*
X46318554Y-30399529D01*
X46310496Y-30377007D01*
X46304684Y-30353803D01*
X46301174Y-30330142D01*
X46300000Y-30306250D01*
X46300000Y-29818750D01*
X46301174Y-29794858D01*
X46304684Y-29771197D01*
X46310496Y-29747993D01*
X46318554Y-29725471D01*
X46328782Y-29703847D01*
X46341079Y-29683330D01*
X46355329Y-29664117D01*
X46371393Y-29646393D01*
X46389117Y-29630329D01*
X46408330Y-29616079D01*
X46428847Y-29603782D01*
X46450471Y-29593554D01*
X46472993Y-29585496D01*
X46496197Y-29579684D01*
X46519858Y-29576174D01*
X46543750Y-29575000D01*
X47456250Y-29575000D01*
X47480142Y-29576174D01*
X47480142Y-29576174D01*
G37*
D12*
X47000000Y-30062500D03*
D10*
G36*
X43480142Y-50451174D02*
G01*
X43503803Y-50454684D01*
X43527007Y-50460496D01*
X43549529Y-50468554D01*
X43571153Y-50478782D01*
X43591670Y-50491079D01*
X43610883Y-50505329D01*
X43628607Y-50521393D01*
X43644671Y-50539117D01*
X43658921Y-50558330D01*
X43671218Y-50578847D01*
X43681446Y-50600471D01*
X43689504Y-50622993D01*
X43695316Y-50646197D01*
X43698826Y-50669858D01*
X43700000Y-50693750D01*
X43700000Y-51181250D01*
X43698826Y-51205142D01*
X43695316Y-51228803D01*
X43689504Y-51252007D01*
X43681446Y-51274529D01*
X43671218Y-51296153D01*
X43658921Y-51316670D01*
X43644671Y-51335883D01*
X43628607Y-51353607D01*
X43610883Y-51369671D01*
X43591670Y-51383921D01*
X43571153Y-51396218D01*
X43549529Y-51406446D01*
X43527007Y-51414504D01*
X43503803Y-51420316D01*
X43480142Y-51423826D01*
X43456250Y-51425000D01*
X42543750Y-51425000D01*
X42519858Y-51423826D01*
X42496197Y-51420316D01*
X42472993Y-51414504D01*
X42450471Y-51406446D01*
X42428847Y-51396218D01*
X42408330Y-51383921D01*
X42389117Y-51369671D01*
X42371393Y-51353607D01*
X42355329Y-51335883D01*
X42341079Y-51316670D01*
X42328782Y-51296153D01*
X42318554Y-51274529D01*
X42310496Y-51252007D01*
X42304684Y-51228803D01*
X42301174Y-51205142D01*
X42300000Y-51181250D01*
X42300000Y-50693750D01*
X42301174Y-50669858D01*
X42304684Y-50646197D01*
X42310496Y-50622993D01*
X42318554Y-50600471D01*
X42328782Y-50578847D01*
X42341079Y-50558330D01*
X42355329Y-50539117D01*
X42371393Y-50521393D01*
X42389117Y-50505329D01*
X42408330Y-50491079D01*
X42428847Y-50478782D01*
X42450471Y-50468554D01*
X42472993Y-50460496D01*
X42496197Y-50454684D01*
X42519858Y-50451174D01*
X42543750Y-50450000D01*
X43456250Y-50450000D01*
X43480142Y-50451174D01*
X43480142Y-50451174D01*
G37*
D12*
X43000000Y-50937500D03*
D10*
G36*
X43480142Y-48576174D02*
G01*
X43503803Y-48579684D01*
X43527007Y-48585496D01*
X43549529Y-48593554D01*
X43571153Y-48603782D01*
X43591670Y-48616079D01*
X43610883Y-48630329D01*
X43628607Y-48646393D01*
X43644671Y-48664117D01*
X43658921Y-48683330D01*
X43671218Y-48703847D01*
X43681446Y-48725471D01*
X43689504Y-48747993D01*
X43695316Y-48771197D01*
X43698826Y-48794858D01*
X43700000Y-48818750D01*
X43700000Y-49306250D01*
X43698826Y-49330142D01*
X43695316Y-49353803D01*
X43689504Y-49377007D01*
X43681446Y-49399529D01*
X43671218Y-49421153D01*
X43658921Y-49441670D01*
X43644671Y-49460883D01*
X43628607Y-49478607D01*
X43610883Y-49494671D01*
X43591670Y-49508921D01*
X43571153Y-49521218D01*
X43549529Y-49531446D01*
X43527007Y-49539504D01*
X43503803Y-49545316D01*
X43480142Y-49548826D01*
X43456250Y-49550000D01*
X42543750Y-49550000D01*
X42519858Y-49548826D01*
X42496197Y-49545316D01*
X42472993Y-49539504D01*
X42450471Y-49531446D01*
X42428847Y-49521218D01*
X42408330Y-49508921D01*
X42389117Y-49494671D01*
X42371393Y-49478607D01*
X42355329Y-49460883D01*
X42341079Y-49441670D01*
X42328782Y-49421153D01*
X42318554Y-49399529D01*
X42310496Y-49377007D01*
X42304684Y-49353803D01*
X42301174Y-49330142D01*
X42300000Y-49306250D01*
X42300000Y-48818750D01*
X42301174Y-48794858D01*
X42304684Y-48771197D01*
X42310496Y-48747993D01*
X42318554Y-48725471D01*
X42328782Y-48703847D01*
X42341079Y-48683330D01*
X42355329Y-48664117D01*
X42371393Y-48646393D01*
X42389117Y-48630329D01*
X42408330Y-48616079D01*
X42428847Y-48603782D01*
X42450471Y-48593554D01*
X42472993Y-48585496D01*
X42496197Y-48579684D01*
X42519858Y-48576174D01*
X42543750Y-48575000D01*
X43456250Y-48575000D01*
X43480142Y-48576174D01*
X43480142Y-48576174D01*
G37*
D12*
X43000000Y-49062500D03*
D10*
G36*
X65480142Y-58651174D02*
G01*
X65503803Y-58654684D01*
X65527007Y-58660496D01*
X65549529Y-58668554D01*
X65571153Y-58678782D01*
X65591670Y-58691079D01*
X65610883Y-58705329D01*
X65628607Y-58721393D01*
X65644671Y-58739117D01*
X65658921Y-58758330D01*
X65671218Y-58778847D01*
X65681446Y-58800471D01*
X65689504Y-58822993D01*
X65695316Y-58846197D01*
X65698826Y-58869858D01*
X65700000Y-58893750D01*
X65700000Y-59381250D01*
X65698826Y-59405142D01*
X65695316Y-59428803D01*
X65689504Y-59452007D01*
X65681446Y-59474529D01*
X65671218Y-59496153D01*
X65658921Y-59516670D01*
X65644671Y-59535883D01*
X65628607Y-59553607D01*
X65610883Y-59569671D01*
X65591670Y-59583921D01*
X65571153Y-59596218D01*
X65549529Y-59606446D01*
X65527007Y-59614504D01*
X65503803Y-59620316D01*
X65480142Y-59623826D01*
X65456250Y-59625000D01*
X64543750Y-59625000D01*
X64519858Y-59623826D01*
X64496197Y-59620316D01*
X64472993Y-59614504D01*
X64450471Y-59606446D01*
X64428847Y-59596218D01*
X64408330Y-59583921D01*
X64389117Y-59569671D01*
X64371393Y-59553607D01*
X64355329Y-59535883D01*
X64341079Y-59516670D01*
X64328782Y-59496153D01*
X64318554Y-59474529D01*
X64310496Y-59452007D01*
X64304684Y-59428803D01*
X64301174Y-59405142D01*
X64300000Y-59381250D01*
X64300000Y-58893750D01*
X64301174Y-58869858D01*
X64304684Y-58846197D01*
X64310496Y-58822993D01*
X64318554Y-58800471D01*
X64328782Y-58778847D01*
X64341079Y-58758330D01*
X64355329Y-58739117D01*
X64371393Y-58721393D01*
X64389117Y-58705329D01*
X64408330Y-58691079D01*
X64428847Y-58678782D01*
X64450471Y-58668554D01*
X64472993Y-58660496D01*
X64496197Y-58654684D01*
X64519858Y-58651174D01*
X64543750Y-58650000D01*
X65456250Y-58650000D01*
X65480142Y-58651174D01*
X65480142Y-58651174D01*
G37*
D12*
X65000000Y-59137500D03*
D10*
G36*
X65480142Y-56776174D02*
G01*
X65503803Y-56779684D01*
X65527007Y-56785496D01*
X65549529Y-56793554D01*
X65571153Y-56803782D01*
X65591670Y-56816079D01*
X65610883Y-56830329D01*
X65628607Y-56846393D01*
X65644671Y-56864117D01*
X65658921Y-56883330D01*
X65671218Y-56903847D01*
X65681446Y-56925471D01*
X65689504Y-56947993D01*
X65695316Y-56971197D01*
X65698826Y-56994858D01*
X65700000Y-57018750D01*
X65700000Y-57506250D01*
X65698826Y-57530142D01*
X65695316Y-57553803D01*
X65689504Y-57577007D01*
X65681446Y-57599529D01*
X65671218Y-57621153D01*
X65658921Y-57641670D01*
X65644671Y-57660883D01*
X65628607Y-57678607D01*
X65610883Y-57694671D01*
X65591670Y-57708921D01*
X65571153Y-57721218D01*
X65549529Y-57731446D01*
X65527007Y-57739504D01*
X65503803Y-57745316D01*
X65480142Y-57748826D01*
X65456250Y-57750000D01*
X64543750Y-57750000D01*
X64519858Y-57748826D01*
X64496197Y-57745316D01*
X64472993Y-57739504D01*
X64450471Y-57731446D01*
X64428847Y-57721218D01*
X64408330Y-57708921D01*
X64389117Y-57694671D01*
X64371393Y-57678607D01*
X64355329Y-57660883D01*
X64341079Y-57641670D01*
X64328782Y-57621153D01*
X64318554Y-57599529D01*
X64310496Y-57577007D01*
X64304684Y-57553803D01*
X64301174Y-57530142D01*
X64300000Y-57506250D01*
X64300000Y-57018750D01*
X64301174Y-56994858D01*
X64304684Y-56971197D01*
X64310496Y-56947993D01*
X64318554Y-56925471D01*
X64328782Y-56903847D01*
X64341079Y-56883330D01*
X64355329Y-56864117D01*
X64371393Y-56846393D01*
X64389117Y-56830329D01*
X64408330Y-56816079D01*
X64428847Y-56803782D01*
X64450471Y-56793554D01*
X64472993Y-56785496D01*
X64496197Y-56779684D01*
X64519858Y-56776174D01*
X64543750Y-56775000D01*
X65456250Y-56775000D01*
X65480142Y-56776174D01*
X65480142Y-56776174D01*
G37*
D12*
X65000000Y-57262500D03*
M02*
