M48
; DRILL file {KiCad 5.1.2-f72e74a~84~ubuntu18.04.1} date Fri 17 May 2019 10:17:20 AM PDT
; FORMAT={-:-/ absolute / inch / decimal}
; #@! TF.CreationDate,2019-05-17T10:17:20-07:00
; #@! TF.GenerationSoftware,Kicad,Pcbnew,5.1.2-f72e74a~84~ubuntu18.04.1
; #@! TF.FileFunction,Plated,1,2,PTH
FMAT,2
INCH
T1C0.0157
T2C0.0402
T3C0.0433
T4C0.0472
%
G90
G05
T1
X1.6142Y-2.0054
X1.6142Y-2.1666
X1.6535Y-1.063
X1.6535Y-1.7717
X1.6929Y-2.2736
X1.7126Y-1.063
X1.7126Y-1.4567
X1.7953Y-1.9685
X1.7953Y-2.1207
X1.9094Y-1.2574
X1.9094Y-1.4788
X1.9094Y-1.7347
X1.9094Y-1.8086
X1.9094Y-1.9316
X1.9094Y-1.9685
X1.9685Y-1.063
X1.9685Y-1.1836
X1.9685Y-1.9291
X1.9685Y-2.1707
X1.9685Y-2.2207
X1.9685Y-2.3909
X2.0276Y-1.2574
X2.0276Y-1.5173
X2.0276Y-1.7347
X2.0276Y-1.8086
X2.0276Y-1.9291
X2.1575Y-2.1707
X2.1587Y-2.2753
X2.2835Y-1.3189
X2.2835Y-1.7126
X2.622Y-2.1207
X2.622Y-2.194
X2.622Y-2.2544
X2.622Y-2.3282
X2.622Y-2.3937
T2
X2.2835Y-1.4173
X2.2835Y-1.5173
X2.2835Y-1.6173
T3
X2.812Y-1.9971
X2.812Y-2.194
X2.812Y-2.3909
T4
X1.2757Y-1.2598
X1.4728Y-1.063
X1.4728Y-1.1614
X1.4728Y-1.3583
X1.4728Y-1.4567
X1.2757Y-1.9685
X1.4728Y-1.7717
X1.4728Y-1.8701
X1.4728Y-2.0669
X1.4728Y-2.1654
X2.5232Y-1.3189
X2.5232Y-1.4173
X2.5232Y-1.6142
X2.5232Y-1.7126
X2.7203Y-1.5157
T0
M30
