G04 #@! TF.GenerationSoftware,KiCad,Pcbnew,5.1.2-f72e74a~84~ubuntu18.04.1*
G04 #@! TF.CreationDate,2019-05-17T10:17:23-07:00*
G04 #@! TF.ProjectId,NewVNA,4e657756-4e41-42e6-9b69-6361645f7063,CAT V.2*
G04 #@! TF.SameCoordinates,Original*
G04 #@! TF.FileFunction,Soldermask,Bot*
G04 #@! TF.FilePolarity,Negative*
%FSLAX46Y46*%
G04 Gerber Fmt 4.6, Leading zero omitted, Abs format (unit mm)*
G04 Created by KiCad (PCBNEW 5.1.2-f72e74a~84~ubuntu18.04.1) date 2019-05-17 10:17:23*
%MOMM*%
%LPD*%
G04 APERTURE LIST*
%ADD10C,0.100000*%
G04 APERTURE END LIST*
D10*
G36*
X71680320Y-59885264D02*
G01*
X71839742Y-59951299D01*
X71983218Y-60047166D01*
X72105234Y-60169182D01*
X72201101Y-60312658D01*
X72267136Y-60472080D01*
X72300800Y-60641321D01*
X72300800Y-60813879D01*
X72267136Y-60983120D01*
X72201101Y-61142542D01*
X72105234Y-61286018D01*
X71983218Y-61408034D01*
X71839742Y-61503901D01*
X71680320Y-61569936D01*
X71511080Y-61603600D01*
X71338520Y-61603600D01*
X71169280Y-61569936D01*
X71009858Y-61503901D01*
X70866382Y-61408034D01*
X70744366Y-61286018D01*
X70648499Y-61142542D01*
X70582464Y-60983120D01*
X70548800Y-60813879D01*
X70548800Y-60641321D01*
X70582464Y-60472080D01*
X70648499Y-60312658D01*
X70744366Y-60169182D01*
X70866382Y-60047166D01*
X71009858Y-59951299D01*
X71169280Y-59885264D01*
X71338520Y-59851600D01*
X71511080Y-59851600D01*
X71680320Y-59885264D01*
X71680320Y-59885264D01*
G37*
G36*
X71595699Y-54868432D02*
G01*
X71680320Y-54885264D01*
X71839742Y-54951299D01*
X71983218Y-55047166D01*
X72105234Y-55169182D01*
X72201101Y-55312658D01*
X72267136Y-55472080D01*
X72283968Y-55556701D01*
X72300800Y-55641320D01*
X72300800Y-55813880D01*
X72291695Y-55859652D01*
X72267136Y-55983120D01*
X72201101Y-56142542D01*
X72105234Y-56286018D01*
X71983218Y-56408034D01*
X71839742Y-56503901D01*
X71680320Y-56569936D01*
X71511080Y-56603600D01*
X71338520Y-56603600D01*
X71169280Y-56569936D01*
X71009858Y-56503901D01*
X70866382Y-56408034D01*
X70744366Y-56286018D01*
X70648499Y-56142542D01*
X70582464Y-55983120D01*
X70557905Y-55859652D01*
X70548800Y-55813880D01*
X70548800Y-55641320D01*
X70565632Y-55556701D01*
X70582464Y-55472080D01*
X70648499Y-55312658D01*
X70744366Y-55169182D01*
X70866382Y-55047166D01*
X71009858Y-54951299D01*
X71169280Y-54885264D01*
X71253901Y-54868432D01*
X71338520Y-54851600D01*
X71511080Y-54851600D01*
X71595699Y-54868432D01*
X71595699Y-54868432D01*
G37*
G36*
X38466529Y-54087398D02*
G01*
X38641079Y-54140348D01*
X38801947Y-54226333D01*
X38942949Y-54342051D01*
X39058667Y-54483053D01*
X39144652Y-54643921D01*
X39197602Y-54818471D01*
X39215480Y-55000000D01*
X39197602Y-55181529D01*
X39144652Y-55356079D01*
X39058667Y-55516947D01*
X38942949Y-55657949D01*
X38801947Y-55773667D01*
X38641079Y-55859652D01*
X38466529Y-55912602D01*
X38330490Y-55926000D01*
X36489510Y-55926000D01*
X36353471Y-55912602D01*
X36178921Y-55859652D01*
X36018053Y-55773667D01*
X35877051Y-55657949D01*
X35761333Y-55516947D01*
X35675348Y-55356079D01*
X35622398Y-55181529D01*
X35604520Y-55000000D01*
X35622398Y-54818471D01*
X35675348Y-54643921D01*
X35761333Y-54483053D01*
X35877051Y-54342051D01*
X36018053Y-54226333D01*
X36178921Y-54140348D01*
X36353471Y-54087398D01*
X36489510Y-54074000D01*
X38330490Y-54074000D01*
X38466529Y-54087398D01*
X38466529Y-54087398D01*
G37*
G36*
X38466529Y-51587398D02*
G01*
X38641079Y-51640348D01*
X38801947Y-51726333D01*
X38942949Y-51842051D01*
X39058667Y-51983053D01*
X39144652Y-52143921D01*
X39197602Y-52318471D01*
X39215480Y-52500000D01*
X39197602Y-52681529D01*
X39144652Y-52856079D01*
X39058667Y-53016947D01*
X38942949Y-53157949D01*
X38801947Y-53273667D01*
X38641079Y-53359652D01*
X38466529Y-53412602D01*
X38330490Y-53426000D01*
X36489510Y-53426000D01*
X36353471Y-53412602D01*
X36178921Y-53359652D01*
X36018053Y-53273667D01*
X35877051Y-53157949D01*
X35761333Y-53016947D01*
X35675348Y-52856079D01*
X35622398Y-52681529D01*
X35604520Y-52500000D01*
X35622398Y-52318471D01*
X35675348Y-52143921D01*
X35761333Y-51983053D01*
X35877051Y-51842051D01*
X36018053Y-51726333D01*
X36178921Y-51640348D01*
X36353471Y-51587398D01*
X36489510Y-51574000D01*
X38330490Y-51574000D01*
X38466529Y-51587398D01*
X38466529Y-51587398D01*
G37*
G36*
X33705000Y-51801000D02*
G01*
X31103000Y-51801000D01*
X31103000Y-48199000D01*
X33705000Y-48199000D01*
X33705000Y-51801000D01*
X33705000Y-51801000D01*
G37*
G36*
X72300800Y-51603600D02*
G01*
X70548800Y-51603600D01*
X70548800Y-49851600D01*
X72300800Y-49851600D01*
X72300800Y-51603600D01*
X72300800Y-51603600D01*
G37*
G36*
X38466529Y-46587398D02*
G01*
X38641079Y-46640348D01*
X38801947Y-46726333D01*
X38942949Y-46842051D01*
X39058667Y-46983053D01*
X39144652Y-47143921D01*
X39197602Y-47318471D01*
X39215480Y-47500000D01*
X39197602Y-47681529D01*
X39144652Y-47856079D01*
X39058667Y-48016947D01*
X38942949Y-48157949D01*
X38801947Y-48273667D01*
X38641079Y-48359652D01*
X38466529Y-48412602D01*
X38330490Y-48426000D01*
X36489510Y-48426000D01*
X36353471Y-48412602D01*
X36178921Y-48359652D01*
X36018053Y-48273667D01*
X35877051Y-48157949D01*
X35761333Y-48016947D01*
X35675348Y-47856079D01*
X35622398Y-47681529D01*
X35604520Y-47500000D01*
X35622398Y-47318471D01*
X35675348Y-47143921D01*
X35761333Y-46983053D01*
X35877051Y-46842051D01*
X36018053Y-46726333D01*
X36178921Y-46640348D01*
X36353471Y-46587398D01*
X36489510Y-46574000D01*
X38330490Y-46574000D01*
X38466529Y-46587398D01*
X38466529Y-46587398D01*
G37*
G36*
X38466529Y-44087398D02*
G01*
X38641079Y-44140348D01*
X38801947Y-44226333D01*
X38942949Y-44342051D01*
X39058667Y-44483053D01*
X39144652Y-44643921D01*
X39197602Y-44818471D01*
X39215480Y-45000000D01*
X39197602Y-45181529D01*
X39144652Y-45356079D01*
X39058667Y-45516947D01*
X38942949Y-45657949D01*
X38801947Y-45773667D01*
X38641079Y-45859652D01*
X38466529Y-45912602D01*
X38330490Y-45926000D01*
X36489510Y-45926000D01*
X36353471Y-45912602D01*
X36178921Y-45859652D01*
X36018053Y-45773667D01*
X35877051Y-45657949D01*
X35761333Y-45516947D01*
X35675348Y-45356079D01*
X35622398Y-45181529D01*
X35604520Y-45000000D01*
X35622398Y-44818471D01*
X35675348Y-44643921D01*
X35761333Y-44483053D01*
X35877051Y-44342051D01*
X36018053Y-44226333D01*
X36178921Y-44140348D01*
X36353471Y-44087398D01*
X36489510Y-44074000D01*
X38330490Y-44074000D01*
X38466529Y-44087398D01*
X38466529Y-44087398D01*
G37*
G36*
X65146529Y-42587398D02*
G01*
X65321079Y-42640348D01*
X65481947Y-42726333D01*
X65622949Y-42842051D01*
X65738667Y-42983053D01*
X65824652Y-43143921D01*
X65877602Y-43318471D01*
X65895480Y-43500000D01*
X65877602Y-43681529D01*
X65824652Y-43856079D01*
X65738667Y-44016947D01*
X65622949Y-44157949D01*
X65481947Y-44273667D01*
X65321079Y-44359652D01*
X65146529Y-44412602D01*
X65010490Y-44426000D01*
X63169510Y-44426000D01*
X63033471Y-44412602D01*
X62858921Y-44359652D01*
X62698053Y-44273667D01*
X62557051Y-44157949D01*
X62441333Y-44016947D01*
X62355348Y-43856079D01*
X62302398Y-43681529D01*
X62284520Y-43500000D01*
X62302398Y-43318471D01*
X62355348Y-43143921D01*
X62441333Y-42983053D01*
X62557051Y-42842051D01*
X62698053Y-42726333D01*
X62858921Y-42640348D01*
X63033471Y-42587398D01*
X63169510Y-42574000D01*
X65010490Y-42574000D01*
X65146529Y-42587398D01*
X65146529Y-42587398D01*
G37*
G36*
X58310343Y-40175361D02*
G01*
X58329568Y-40177254D01*
X58502234Y-40229632D01*
X58661365Y-40314689D01*
X58800844Y-40429156D01*
X58915311Y-40568635D01*
X59000368Y-40727766D01*
X59052746Y-40900433D01*
X59070432Y-41080000D01*
X59052746Y-41259567D01*
X59000368Y-41432234D01*
X58915311Y-41591365D01*
X58800844Y-41730844D01*
X58661365Y-41845311D01*
X58502234Y-41930368D01*
X58329568Y-41982746D01*
X58310343Y-41984639D01*
X58194998Y-41996000D01*
X57805002Y-41996000D01*
X57689657Y-41984639D01*
X57670432Y-41982746D01*
X57497766Y-41930368D01*
X57338635Y-41845311D01*
X57199156Y-41730844D01*
X57084689Y-41591365D01*
X56999632Y-41432234D01*
X56947254Y-41259567D01*
X56929568Y-41080000D01*
X56947254Y-40900433D01*
X56999632Y-40727766D01*
X57084689Y-40568635D01*
X57199156Y-40429156D01*
X57338635Y-40314689D01*
X57497766Y-40229632D01*
X57584100Y-40203443D01*
X57670432Y-40177254D01*
X57689657Y-40175361D01*
X57805002Y-40164000D01*
X58194998Y-40164000D01*
X58310343Y-40175361D01*
X58310343Y-40175361D01*
G37*
G36*
X65146529Y-40087398D02*
G01*
X65321079Y-40140348D01*
X65481947Y-40226333D01*
X65622949Y-40342051D01*
X65738667Y-40483053D01*
X65824652Y-40643921D01*
X65877602Y-40818471D01*
X65895480Y-41000000D01*
X65877602Y-41181529D01*
X65824652Y-41356079D01*
X65738667Y-41516947D01*
X65622949Y-41657949D01*
X65481947Y-41773667D01*
X65321079Y-41859652D01*
X65146529Y-41912602D01*
X65010490Y-41926000D01*
X63169510Y-41926000D01*
X63033471Y-41912602D01*
X62858921Y-41859652D01*
X62698053Y-41773667D01*
X62557051Y-41657949D01*
X62441333Y-41516947D01*
X62355348Y-41356079D01*
X62302398Y-41181529D01*
X62284520Y-41000000D01*
X62302398Y-40818471D01*
X62355348Y-40643921D01*
X62441333Y-40483053D01*
X62557051Y-40342051D01*
X62698053Y-40226333D01*
X62858921Y-40140348D01*
X63033471Y-40087398D01*
X63169510Y-40074000D01*
X65010490Y-40074000D01*
X65146529Y-40087398D01*
X65146529Y-40087398D01*
G37*
G36*
X70397000Y-40301000D02*
G01*
X67795000Y-40301000D01*
X67795000Y-36699000D01*
X70397000Y-36699000D01*
X70397000Y-40301000D01*
X70397000Y-40301000D01*
G37*
G36*
X58310343Y-37635361D02*
G01*
X58329568Y-37637254D01*
X58397789Y-37657949D01*
X58502234Y-37689632D01*
X58661365Y-37774689D01*
X58800844Y-37889156D01*
X58915311Y-38028635D01*
X59000368Y-38187766D01*
X59052746Y-38360433D01*
X59070432Y-38540000D01*
X59052746Y-38719567D01*
X59000368Y-38892234D01*
X58915311Y-39051365D01*
X58800844Y-39190844D01*
X58661365Y-39305311D01*
X58502234Y-39390368D01*
X58415900Y-39416557D01*
X58329568Y-39442746D01*
X58310343Y-39444639D01*
X58194998Y-39456000D01*
X57805002Y-39456000D01*
X57689657Y-39444639D01*
X57670432Y-39442746D01*
X57497766Y-39390368D01*
X57338635Y-39305311D01*
X57199156Y-39190844D01*
X57084689Y-39051365D01*
X56999632Y-38892234D01*
X56947254Y-38719567D01*
X56929568Y-38540000D01*
X56947254Y-38360433D01*
X56999632Y-38187766D01*
X57084689Y-38028635D01*
X57199156Y-37889156D01*
X57338635Y-37774689D01*
X57497766Y-37689632D01*
X57602211Y-37657949D01*
X57670432Y-37637254D01*
X57689657Y-37635361D01*
X57805002Y-37624000D01*
X58194998Y-37624000D01*
X58310343Y-37635361D01*
X58310343Y-37635361D01*
G37*
G36*
X38466529Y-36087398D02*
G01*
X38641079Y-36140348D01*
X38801947Y-36226333D01*
X38942949Y-36342051D01*
X39058667Y-36483053D01*
X39144652Y-36643921D01*
X39197602Y-36818471D01*
X39215480Y-37000000D01*
X39197602Y-37181529D01*
X39144652Y-37356079D01*
X39058667Y-37516947D01*
X38942949Y-37657949D01*
X38801947Y-37773667D01*
X38641079Y-37859652D01*
X38466529Y-37912602D01*
X38330490Y-37926000D01*
X36489510Y-37926000D01*
X36353471Y-37912602D01*
X36178921Y-37859652D01*
X36018053Y-37773667D01*
X35877051Y-37657949D01*
X35761333Y-37516947D01*
X35675348Y-37356079D01*
X35622398Y-37181529D01*
X35604520Y-37000000D01*
X35622398Y-36818471D01*
X35675348Y-36643921D01*
X35761333Y-36483053D01*
X35877051Y-36342051D01*
X36018053Y-36226333D01*
X36178921Y-36140348D01*
X36353471Y-36087398D01*
X36489510Y-36074000D01*
X38330490Y-36074000D01*
X38466529Y-36087398D01*
X38466529Y-36087398D01*
G37*
G36*
X65146529Y-35087398D02*
G01*
X65321079Y-35140348D01*
X65481947Y-35226333D01*
X65622949Y-35342051D01*
X65738667Y-35483053D01*
X65824652Y-35643921D01*
X65877602Y-35818471D01*
X65895480Y-36000000D01*
X65877602Y-36181529D01*
X65824652Y-36356079D01*
X65738667Y-36516947D01*
X65622949Y-36657949D01*
X65481947Y-36773667D01*
X65321079Y-36859652D01*
X65146529Y-36912602D01*
X65010490Y-36926000D01*
X63169510Y-36926000D01*
X63033471Y-36912602D01*
X62858921Y-36859652D01*
X62698053Y-36773667D01*
X62557051Y-36657949D01*
X62441333Y-36516947D01*
X62355348Y-36356079D01*
X62302398Y-36181529D01*
X62284520Y-36000000D01*
X62302398Y-35818471D01*
X62355348Y-35643921D01*
X62441333Y-35483053D01*
X62557051Y-35342051D01*
X62698053Y-35226333D01*
X62858921Y-35140348D01*
X63033471Y-35087398D01*
X63169510Y-35074000D01*
X65010490Y-35074000D01*
X65146529Y-35087398D01*
X65146529Y-35087398D01*
G37*
G36*
X59066000Y-36916000D02*
G01*
X56934000Y-36916000D01*
X56934000Y-35084000D01*
X59066000Y-35084000D01*
X59066000Y-36916000D01*
X59066000Y-36916000D01*
G37*
G36*
X38466529Y-33587398D02*
G01*
X38641079Y-33640348D01*
X38801947Y-33726333D01*
X38942949Y-33842051D01*
X39058667Y-33983053D01*
X39144652Y-34143921D01*
X39197602Y-34318471D01*
X39215480Y-34500000D01*
X39197602Y-34681529D01*
X39144652Y-34856079D01*
X39058667Y-35016947D01*
X38942949Y-35157949D01*
X38801947Y-35273667D01*
X38641079Y-35359652D01*
X38466529Y-35412602D01*
X38330490Y-35426000D01*
X36489510Y-35426000D01*
X36353471Y-35412602D01*
X36178921Y-35359652D01*
X36018053Y-35273667D01*
X35877051Y-35157949D01*
X35761333Y-35016947D01*
X35675348Y-34856079D01*
X35622398Y-34681529D01*
X35604520Y-34500000D01*
X35622398Y-34318471D01*
X35675348Y-34143921D01*
X35761333Y-33983053D01*
X35877051Y-33842051D01*
X36018053Y-33726333D01*
X36178921Y-33640348D01*
X36353471Y-33587398D01*
X36489510Y-33574000D01*
X38330490Y-33574000D01*
X38466529Y-33587398D01*
X38466529Y-33587398D01*
G37*
G36*
X65146529Y-32587398D02*
G01*
X65321079Y-32640348D01*
X65481947Y-32726333D01*
X65622949Y-32842051D01*
X65738667Y-32983053D01*
X65824652Y-33143921D01*
X65877602Y-33318471D01*
X65895480Y-33500000D01*
X65877602Y-33681529D01*
X65824652Y-33856079D01*
X65738667Y-34016947D01*
X65622949Y-34157949D01*
X65481947Y-34273667D01*
X65321079Y-34359652D01*
X65146529Y-34412602D01*
X65010490Y-34426000D01*
X63169510Y-34426000D01*
X63033471Y-34412602D01*
X62858921Y-34359652D01*
X62698053Y-34273667D01*
X62557051Y-34157949D01*
X62441333Y-34016947D01*
X62355348Y-33856079D01*
X62302398Y-33681529D01*
X62284520Y-33500000D01*
X62302398Y-33318471D01*
X62355348Y-33143921D01*
X62441333Y-32983053D01*
X62557051Y-32842051D01*
X62698053Y-32726333D01*
X62858921Y-32640348D01*
X63033471Y-32587398D01*
X63169510Y-32574000D01*
X65010490Y-32574000D01*
X65146529Y-32587398D01*
X65146529Y-32587398D01*
G37*
G36*
X33705000Y-33801000D02*
G01*
X31103000Y-33801000D01*
X31103000Y-30199000D01*
X33705000Y-30199000D01*
X33705000Y-33801000D01*
X33705000Y-33801000D01*
G37*
G36*
X38466529Y-28587398D02*
G01*
X38641079Y-28640348D01*
X38801947Y-28726333D01*
X38942949Y-28842051D01*
X39058667Y-28983053D01*
X39144652Y-29143921D01*
X39197602Y-29318471D01*
X39215480Y-29500000D01*
X39197602Y-29681529D01*
X39144652Y-29856079D01*
X39058667Y-30016947D01*
X38942949Y-30157949D01*
X38801947Y-30273667D01*
X38641079Y-30359652D01*
X38466529Y-30412602D01*
X38330490Y-30426000D01*
X36489510Y-30426000D01*
X36353471Y-30412602D01*
X36178921Y-30359652D01*
X36018053Y-30273667D01*
X35877051Y-30157949D01*
X35761333Y-30016947D01*
X35675348Y-29856079D01*
X35622398Y-29681529D01*
X35604520Y-29500000D01*
X35622398Y-29318471D01*
X35675348Y-29143921D01*
X35761333Y-28983053D01*
X35877051Y-28842051D01*
X36018053Y-28726333D01*
X36178921Y-28640348D01*
X36353471Y-28587398D01*
X36489510Y-28574000D01*
X38330490Y-28574000D01*
X38466529Y-28587398D01*
X38466529Y-28587398D01*
G37*
G36*
X38466529Y-26087398D02*
G01*
X38641079Y-26140348D01*
X38801947Y-26226333D01*
X38942949Y-26342051D01*
X39058667Y-26483053D01*
X39144652Y-26643921D01*
X39197602Y-26818471D01*
X39215480Y-27000000D01*
X39197602Y-27181529D01*
X39144652Y-27356079D01*
X39058667Y-27516947D01*
X38942949Y-27657949D01*
X38801947Y-27773667D01*
X38641079Y-27859652D01*
X38466529Y-27912602D01*
X38330490Y-27926000D01*
X36489510Y-27926000D01*
X36353471Y-27912602D01*
X36178921Y-27859652D01*
X36018053Y-27773667D01*
X35877051Y-27657949D01*
X35761333Y-27516947D01*
X35675348Y-27356079D01*
X35622398Y-27181529D01*
X35604520Y-27000000D01*
X35622398Y-26818471D01*
X35675348Y-26643921D01*
X35761333Y-26483053D01*
X35877051Y-26342051D01*
X36018053Y-26226333D01*
X36178921Y-26140348D01*
X36353471Y-26087398D01*
X36489510Y-26074000D01*
X38330490Y-26074000D01*
X38466529Y-26087398D01*
X38466529Y-26087398D01*
G37*
M02*
