G04 #@! TF.GenerationSoftware,KiCad,Pcbnew,5.1.2-f72e74a~84~ubuntu18.04.1*
G04 #@! TF.CreationDate,2019-05-17T10:17:23-07:00*
G04 #@! TF.ProjectId,NewVNA,4e657756-4e41-42e6-9b69-6361645f7063,CAT V.2*
G04 #@! TF.SameCoordinates,Original*
G04 #@! TF.FileFunction,Copper,L2,Bot*
G04 #@! TF.FilePolarity,Positive*
%FSLAX46Y46*%
G04 Gerber Fmt 4.6, Leading zero omitted, Abs format (unit mm)*
G04 Created by KiCad (PCBNEW 5.1.2-f72e74a~84~ubuntu18.04.1) date 2019-05-17 10:17:23*
%MOMM*%
%LPD*%
G04 APERTURE LIST*
%ADD10O,2.030000X1.730000*%
%ADD11R,2.030000X1.730000*%
%ADD12C,1.650000*%
%ADD13R,1.650000X1.650000*%
%ADD14O,3.500000X1.750000*%
%ADD15R,2.500000X3.500000*%
%ADD16C,0.800000*%
%ADD17C,0.250000*%
%ADD18C,0.254000*%
G04 APERTURE END LIST*
D10*
X58000000Y-41080000D03*
X58000000Y-38540000D03*
D11*
X58000000Y-36000000D03*
D12*
X71424800Y-60727600D03*
X71424800Y-55727600D03*
D13*
X71424800Y-50727600D03*
D14*
X64090000Y-36000000D03*
X64090000Y-41000000D03*
X64090000Y-33500000D03*
X64090000Y-43500000D03*
D15*
X69096000Y-38500000D03*
D14*
X37410000Y-34500000D03*
X37410000Y-29500000D03*
X37410000Y-37000000D03*
X37410000Y-27000000D03*
D15*
X32404000Y-32000000D03*
D14*
X37410000Y-52500000D03*
X37410000Y-47500000D03*
X37410000Y-55000000D03*
X37410000Y-45000000D03*
D15*
X32404000Y-50000000D03*
D16*
X50000000Y-60727600D03*
X66600000Y-60800000D03*
X66600000Y-59137500D03*
X50000000Y-56405000D03*
X66600000Y-55727600D03*
X66600000Y-57262500D03*
X66600000Y-53865000D03*
X48500000Y-50000000D03*
X48500000Y-45937500D03*
X48500000Y-49062500D03*
X45600000Y-50000000D03*
X45600000Y-53865000D03*
X48500000Y-37562500D03*
X48500000Y-31937500D03*
X48500000Y-44062500D03*
X51500000Y-45937500D03*
X51500000Y-49000000D03*
X50000000Y-55135000D03*
X50000000Y-49000000D03*
X41000000Y-50937500D03*
X41000000Y-55031300D03*
X54800000Y-55135000D03*
X54830200Y-57793400D03*
X43000000Y-57750000D03*
X42000000Y-27000000D03*
X42000000Y-45000000D03*
X43500000Y-37000000D03*
X43500000Y-27000000D03*
X50000000Y-27000000D03*
X50000000Y-30062500D03*
X58000000Y-33500000D03*
X58000000Y-43500000D03*
X51500000Y-31937500D03*
X51500000Y-38540000D03*
X51500000Y-44062500D03*
D17*
X50000000Y-60727600D02*
X50000000Y-56405000D01*
X66600000Y-59137500D02*
X66600000Y-60800000D01*
X66600000Y-55800000D02*
X66600000Y-57262500D01*
X66600000Y-53865000D02*
X66600000Y-55727600D01*
X48500000Y-45937500D02*
X48500000Y-49062500D01*
X48500000Y-49062500D02*
X48500000Y-50000000D01*
X45600000Y-50000000D02*
X45600000Y-53865000D01*
X48500000Y-31937500D02*
X48500000Y-37562500D01*
X48500000Y-37562500D02*
X48500000Y-44062500D01*
X51500000Y-45937500D02*
X51500000Y-49000000D01*
X50000000Y-55135000D02*
X50000000Y-49000000D01*
X41000000Y-50937500D02*
X41000000Y-55031300D01*
X54800000Y-55135000D02*
X54800000Y-57793400D01*
X42000000Y-27000000D02*
X42000000Y-45000000D01*
X42000000Y-45000000D02*
X42000000Y-45000000D01*
X43500000Y-37000000D02*
X43500000Y-27000000D01*
X50000000Y-27000000D02*
X50000000Y-30062500D01*
X50000000Y-30062500D02*
X50000000Y-30062500D01*
X58000000Y-33500000D02*
X58000000Y-36000000D01*
X58000000Y-41080000D02*
X58000000Y-43500000D01*
X51500000Y-31937500D02*
X51500000Y-38540000D01*
X51500000Y-38540000D02*
X51500000Y-44062500D01*
D18*
G36*
X35692030Y-25738406D02*
G01*
X35462103Y-25927103D01*
X35273406Y-26157030D01*
X35133192Y-26419352D01*
X35046849Y-26703988D01*
X35017694Y-27000000D01*
X35046849Y-27296012D01*
X35133192Y-27580648D01*
X35273406Y-27842970D01*
X35462103Y-28072897D01*
X35677903Y-28250000D01*
X35462103Y-28427103D01*
X35273406Y-28657030D01*
X35133192Y-28919352D01*
X35046849Y-29203988D01*
X35017694Y-29500000D01*
X35046849Y-29796012D01*
X35133192Y-30080648D01*
X35273406Y-30342970D01*
X35462103Y-30572897D01*
X35692030Y-30761594D01*
X35954352Y-30901808D01*
X36238988Y-30988151D01*
X36460822Y-31010000D01*
X38359178Y-31010000D01*
X38581012Y-30988151D01*
X38865648Y-30901808D01*
X39127970Y-30761594D01*
X39357897Y-30572897D01*
X39546594Y-30342970D01*
X39686808Y-30080648D01*
X39773151Y-29796012D01*
X39802306Y-29500000D01*
X39773151Y-29203988D01*
X39686808Y-28919352D01*
X39546594Y-28657030D01*
X39357897Y-28427103D01*
X39142097Y-28250000D01*
X39357897Y-28072897D01*
X39546594Y-27842970D01*
X39686808Y-27580648D01*
X39773151Y-27296012D01*
X39802306Y-27000000D01*
X39792266Y-26898061D01*
X40965000Y-26898061D01*
X40965000Y-27101939D01*
X41004774Y-27301898D01*
X41082795Y-27490256D01*
X41196063Y-27659774D01*
X41240000Y-27703711D01*
X41240001Y-44296288D01*
X41196063Y-44340226D01*
X41082795Y-44509744D01*
X41004774Y-44698102D01*
X40965000Y-44898061D01*
X40965000Y-45101939D01*
X41004774Y-45301898D01*
X41082795Y-45490256D01*
X41196063Y-45659774D01*
X41340226Y-45803937D01*
X41509744Y-45917205D01*
X41698102Y-45995226D01*
X41898061Y-46035000D01*
X42101939Y-46035000D01*
X42301898Y-45995226D01*
X42490256Y-45917205D01*
X42659774Y-45803937D01*
X42803937Y-45659774D01*
X42917205Y-45490256D01*
X42995226Y-45301898D01*
X43035000Y-45101939D01*
X43035000Y-44898061D01*
X42995226Y-44698102D01*
X42917205Y-44509744D01*
X42803937Y-44340226D01*
X42760000Y-44296289D01*
X42760000Y-37723711D01*
X42840226Y-37803937D01*
X43009744Y-37917205D01*
X43198102Y-37995226D01*
X43398061Y-38035000D01*
X43601939Y-38035000D01*
X43801898Y-37995226D01*
X43990256Y-37917205D01*
X44159774Y-37803937D01*
X44303937Y-37659774D01*
X44417205Y-37490256D01*
X44495226Y-37301898D01*
X44535000Y-37101939D01*
X44535000Y-36898061D01*
X44495226Y-36698102D01*
X44417205Y-36509744D01*
X44303937Y-36340226D01*
X44260000Y-36296289D01*
X44260000Y-31835561D01*
X47465000Y-31835561D01*
X47465000Y-32039439D01*
X47504774Y-32239398D01*
X47582795Y-32427756D01*
X47696063Y-32597274D01*
X47740000Y-32641211D01*
X47740001Y-36858788D01*
X47696063Y-36902726D01*
X47582795Y-37072244D01*
X47504774Y-37260602D01*
X47465000Y-37460561D01*
X47465000Y-37664439D01*
X47504774Y-37864398D01*
X47582795Y-38052756D01*
X47696063Y-38222274D01*
X47740000Y-38266211D01*
X47740001Y-43358788D01*
X47696063Y-43402726D01*
X47582795Y-43572244D01*
X47504774Y-43760602D01*
X47465000Y-43960561D01*
X47465000Y-44164439D01*
X47504774Y-44364398D01*
X47582795Y-44552756D01*
X47696063Y-44722274D01*
X47840226Y-44866437D01*
X48009744Y-44979705D01*
X48058740Y-45000000D01*
X48009744Y-45020295D01*
X47840226Y-45133563D01*
X47696063Y-45277726D01*
X47582795Y-45447244D01*
X47504774Y-45635602D01*
X47465000Y-45835561D01*
X47465000Y-46039439D01*
X47504774Y-46239398D01*
X47582795Y-46427756D01*
X47696063Y-46597274D01*
X47740000Y-46641211D01*
X47740001Y-48358788D01*
X47696063Y-48402726D01*
X47582795Y-48572244D01*
X47504774Y-48760602D01*
X47465000Y-48960561D01*
X47465000Y-49164439D01*
X47504774Y-49364398D01*
X47573887Y-49531250D01*
X47504774Y-49698102D01*
X47465000Y-49898061D01*
X47465000Y-50101939D01*
X47504774Y-50301898D01*
X47582795Y-50490256D01*
X47696063Y-50659774D01*
X47840226Y-50803937D01*
X48009744Y-50917205D01*
X48198102Y-50995226D01*
X48398061Y-51035000D01*
X48601939Y-51035000D01*
X48801898Y-50995226D01*
X48990256Y-50917205D01*
X49159774Y-50803937D01*
X49240001Y-50723710D01*
X49240000Y-54431289D01*
X49196063Y-54475226D01*
X49082795Y-54644744D01*
X49004774Y-54833102D01*
X48965000Y-55033061D01*
X48965000Y-55236939D01*
X49004774Y-55436898D01*
X49082795Y-55625256D01*
X49179510Y-55770000D01*
X49082795Y-55914744D01*
X49004774Y-56103102D01*
X48965000Y-56303061D01*
X48965000Y-56506939D01*
X49004774Y-56706898D01*
X49082795Y-56895256D01*
X49196063Y-57064774D01*
X49240001Y-57108712D01*
X49240000Y-60023889D01*
X49196063Y-60067826D01*
X49082795Y-60237344D01*
X49004774Y-60425702D01*
X48965000Y-60625661D01*
X48965000Y-60829539D01*
X49004774Y-61029498D01*
X49082795Y-61217856D01*
X49196063Y-61387374D01*
X49340226Y-61531537D01*
X49509744Y-61644805D01*
X49698102Y-61722826D01*
X49898061Y-61762600D01*
X50101939Y-61762600D01*
X50301898Y-61722826D01*
X50490256Y-61644805D01*
X50659774Y-61531537D01*
X50803937Y-61387374D01*
X50917205Y-61217856D01*
X50995226Y-61029498D01*
X51035000Y-60829539D01*
X51035000Y-60625661D01*
X50995226Y-60425702D01*
X50917205Y-60237344D01*
X50803937Y-60067826D01*
X50760000Y-60023889D01*
X50760000Y-57108711D01*
X50803937Y-57064774D01*
X50917205Y-56895256D01*
X50995226Y-56706898D01*
X51035000Y-56506939D01*
X51035000Y-56303061D01*
X50995226Y-56103102D01*
X50917205Y-55914744D01*
X50820490Y-55770000D01*
X50917205Y-55625256D01*
X50995226Y-55436898D01*
X51035000Y-55236939D01*
X51035000Y-55033061D01*
X53765000Y-55033061D01*
X53765000Y-55236939D01*
X53804774Y-55436898D01*
X53882795Y-55625256D01*
X53996063Y-55794774D01*
X54040000Y-55838711D01*
X54040001Y-57119888D01*
X54026263Y-57133626D01*
X53912995Y-57303144D01*
X53834974Y-57491502D01*
X53795200Y-57691461D01*
X53795200Y-57895339D01*
X53834974Y-58095298D01*
X53912995Y-58283656D01*
X54026263Y-58453174D01*
X54170426Y-58597337D01*
X54339944Y-58710605D01*
X54528302Y-58788626D01*
X54728261Y-58828400D01*
X54932139Y-58828400D01*
X55132098Y-58788626D01*
X55320456Y-58710605D01*
X55489974Y-58597337D01*
X55634137Y-58453174D01*
X55747405Y-58283656D01*
X55825426Y-58095298D01*
X55865200Y-57895339D01*
X55865200Y-57691461D01*
X55825426Y-57491502D01*
X55747405Y-57303144D01*
X55634137Y-57133626D01*
X55560000Y-57059489D01*
X55560000Y-55838711D01*
X55603937Y-55794774D01*
X55717205Y-55625256D01*
X55795226Y-55436898D01*
X55835000Y-55236939D01*
X55835000Y-55033061D01*
X55795226Y-54833102D01*
X55717205Y-54644744D01*
X55603937Y-54475226D01*
X55459774Y-54331063D01*
X55290256Y-54217795D01*
X55101898Y-54139774D01*
X54901939Y-54100000D01*
X54698061Y-54100000D01*
X54498102Y-54139774D01*
X54309744Y-54217795D01*
X54140226Y-54331063D01*
X53996063Y-54475226D01*
X53882795Y-54644744D01*
X53804774Y-54833102D01*
X53765000Y-55033061D01*
X51035000Y-55033061D01*
X50995226Y-54833102D01*
X50917205Y-54644744D01*
X50803937Y-54475226D01*
X50760000Y-54431289D01*
X50760000Y-53763061D01*
X65565000Y-53763061D01*
X65565000Y-53966939D01*
X65604774Y-54166898D01*
X65682795Y-54355256D01*
X65796063Y-54524774D01*
X65840000Y-54568711D01*
X65840001Y-55023888D01*
X65796063Y-55067826D01*
X65682795Y-55237344D01*
X65604774Y-55425702D01*
X65565000Y-55625661D01*
X65565000Y-55829539D01*
X65604774Y-56029498D01*
X65682795Y-56217856D01*
X65796063Y-56387374D01*
X65840000Y-56431311D01*
X65840001Y-56558788D01*
X65796063Y-56602726D01*
X65682795Y-56772244D01*
X65604774Y-56960602D01*
X65565000Y-57160561D01*
X65565000Y-57364439D01*
X65604774Y-57564398D01*
X65682795Y-57752756D01*
X65796063Y-57922274D01*
X65940226Y-58066437D01*
X66109744Y-58179705D01*
X66158740Y-58200000D01*
X66109744Y-58220295D01*
X65940226Y-58333563D01*
X65796063Y-58477726D01*
X65682795Y-58647244D01*
X65604774Y-58835602D01*
X65565000Y-59035561D01*
X65565000Y-59239439D01*
X65604774Y-59439398D01*
X65682795Y-59627756D01*
X65796063Y-59797274D01*
X65840000Y-59841211D01*
X65840001Y-60096288D01*
X65796063Y-60140226D01*
X65682795Y-60309744D01*
X65604774Y-60498102D01*
X65565000Y-60698061D01*
X65565000Y-60901939D01*
X65604774Y-61101898D01*
X65682795Y-61290256D01*
X65796063Y-61459774D01*
X65940226Y-61603937D01*
X66109744Y-61717205D01*
X66298102Y-61795226D01*
X66498061Y-61835000D01*
X66701939Y-61835000D01*
X66901898Y-61795226D01*
X67090256Y-61717205D01*
X67259774Y-61603937D01*
X67403937Y-61459774D01*
X67517205Y-61290256D01*
X67595226Y-61101898D01*
X67635000Y-60901939D01*
X67635000Y-60698061D01*
X67612273Y-60583803D01*
X69964800Y-60583803D01*
X69964800Y-60871397D01*
X70020907Y-61153466D01*
X70130965Y-61419169D01*
X70290744Y-61658296D01*
X70494104Y-61861656D01*
X70733231Y-62021435D01*
X70998934Y-62131493D01*
X71281003Y-62187600D01*
X71568597Y-62187600D01*
X71850666Y-62131493D01*
X72116369Y-62021435D01*
X72355496Y-61861656D01*
X72558856Y-61658296D01*
X72718635Y-61419169D01*
X72828693Y-61153466D01*
X72884800Y-60871397D01*
X72884800Y-60583803D01*
X72828693Y-60301734D01*
X72718635Y-60036031D01*
X72558856Y-59796904D01*
X72355496Y-59593544D01*
X72116369Y-59433765D01*
X71850666Y-59323707D01*
X71568597Y-59267600D01*
X71281003Y-59267600D01*
X70998934Y-59323707D01*
X70733231Y-59433765D01*
X70494104Y-59593544D01*
X70290744Y-59796904D01*
X70130965Y-60036031D01*
X70020907Y-60301734D01*
X69964800Y-60583803D01*
X67612273Y-60583803D01*
X67595226Y-60498102D01*
X67517205Y-60309744D01*
X67403937Y-60140226D01*
X67360000Y-60096289D01*
X67360000Y-59841211D01*
X67403937Y-59797274D01*
X67517205Y-59627756D01*
X67595226Y-59439398D01*
X67635000Y-59239439D01*
X67635000Y-59035561D01*
X67595226Y-58835602D01*
X67517205Y-58647244D01*
X67403937Y-58477726D01*
X67259774Y-58333563D01*
X67090256Y-58220295D01*
X67041260Y-58200000D01*
X67090256Y-58179705D01*
X67259774Y-58066437D01*
X67403937Y-57922274D01*
X67517205Y-57752756D01*
X67595226Y-57564398D01*
X67635000Y-57364439D01*
X67635000Y-57160561D01*
X67595226Y-56960602D01*
X67517205Y-56772244D01*
X67403937Y-56602726D01*
X67360000Y-56558789D01*
X67360000Y-56431311D01*
X67403937Y-56387374D01*
X67517205Y-56217856D01*
X67595226Y-56029498D01*
X67635000Y-55829539D01*
X67635000Y-55625661D01*
X67626674Y-55583803D01*
X69964800Y-55583803D01*
X69964800Y-55871397D01*
X70020907Y-56153466D01*
X70130965Y-56419169D01*
X70290744Y-56658296D01*
X70494104Y-56861656D01*
X70733231Y-57021435D01*
X70998934Y-57131493D01*
X71281003Y-57187600D01*
X71568597Y-57187600D01*
X71850666Y-57131493D01*
X72116369Y-57021435D01*
X72355496Y-56861656D01*
X72558856Y-56658296D01*
X72718635Y-56419169D01*
X72828693Y-56153466D01*
X72884800Y-55871397D01*
X72884800Y-55583803D01*
X72828693Y-55301734D01*
X72718635Y-55036031D01*
X72558856Y-54796904D01*
X72355496Y-54593544D01*
X72116369Y-54433765D01*
X71850666Y-54323707D01*
X71568597Y-54267600D01*
X71281003Y-54267600D01*
X70998934Y-54323707D01*
X70733231Y-54433765D01*
X70494104Y-54593544D01*
X70290744Y-54796904D01*
X70130965Y-55036031D01*
X70020907Y-55301734D01*
X69964800Y-55583803D01*
X67626674Y-55583803D01*
X67595226Y-55425702D01*
X67517205Y-55237344D01*
X67403937Y-55067826D01*
X67360000Y-55023889D01*
X67360000Y-54568711D01*
X67403937Y-54524774D01*
X67517205Y-54355256D01*
X67595226Y-54166898D01*
X67635000Y-53966939D01*
X67635000Y-53763061D01*
X67595226Y-53563102D01*
X67517205Y-53374744D01*
X67403937Y-53205226D01*
X67259774Y-53061063D01*
X67090256Y-52947795D01*
X66901898Y-52869774D01*
X66701939Y-52830000D01*
X66498061Y-52830000D01*
X66298102Y-52869774D01*
X66109744Y-52947795D01*
X65940226Y-53061063D01*
X65796063Y-53205226D01*
X65682795Y-53374744D01*
X65604774Y-53563102D01*
X65565000Y-53763061D01*
X50760000Y-53763061D01*
X50760000Y-51552600D01*
X69961728Y-51552600D01*
X69973988Y-51677082D01*
X70010298Y-51796780D01*
X70069263Y-51907094D01*
X70148615Y-52003785D01*
X70245306Y-52083137D01*
X70355620Y-52142102D01*
X70475318Y-52178412D01*
X70599800Y-52190672D01*
X71139050Y-52187600D01*
X71297800Y-52028850D01*
X71297800Y-50854600D01*
X71551800Y-50854600D01*
X71551800Y-52028850D01*
X71710550Y-52187600D01*
X72249800Y-52190672D01*
X72374282Y-52178412D01*
X72493980Y-52142102D01*
X72604294Y-52083137D01*
X72700985Y-52003785D01*
X72780337Y-51907094D01*
X72839302Y-51796780D01*
X72875612Y-51677082D01*
X72887872Y-51552600D01*
X72884800Y-51013350D01*
X72726050Y-50854600D01*
X71551800Y-50854600D01*
X71297800Y-50854600D01*
X70123550Y-50854600D01*
X69964800Y-51013350D01*
X69961728Y-51552600D01*
X50760000Y-51552600D01*
X50760000Y-49723711D01*
X50840226Y-49803937D01*
X51009744Y-49917205D01*
X51198102Y-49995226D01*
X51398061Y-50035000D01*
X51601939Y-50035000D01*
X51801898Y-49995226D01*
X51990256Y-49917205D01*
X52012113Y-49902600D01*
X69961728Y-49902600D01*
X69964800Y-50441850D01*
X70123550Y-50600600D01*
X71297800Y-50600600D01*
X71297800Y-49426350D01*
X71551800Y-49426350D01*
X71551800Y-50600600D01*
X72726050Y-50600600D01*
X72884800Y-50441850D01*
X72887872Y-49902600D01*
X72875612Y-49778118D01*
X72839302Y-49658420D01*
X72780337Y-49548106D01*
X72700985Y-49451415D01*
X72604294Y-49372063D01*
X72493980Y-49313098D01*
X72374282Y-49276788D01*
X72249800Y-49264528D01*
X71710550Y-49267600D01*
X71551800Y-49426350D01*
X71297800Y-49426350D01*
X71139050Y-49267600D01*
X70599800Y-49264528D01*
X70475318Y-49276788D01*
X70355620Y-49313098D01*
X70245306Y-49372063D01*
X70148615Y-49451415D01*
X70069263Y-49548106D01*
X70010298Y-49658420D01*
X69973988Y-49778118D01*
X69961728Y-49902600D01*
X52012113Y-49902600D01*
X52159774Y-49803937D01*
X52303937Y-49659774D01*
X52417205Y-49490256D01*
X52495226Y-49301898D01*
X52535000Y-49101939D01*
X52535000Y-48898061D01*
X52495226Y-48698102D01*
X52417205Y-48509744D01*
X52303937Y-48340226D01*
X52260000Y-48296289D01*
X52260000Y-46641211D01*
X52303937Y-46597274D01*
X52417205Y-46427756D01*
X52495226Y-46239398D01*
X52535000Y-46039439D01*
X52535000Y-45835561D01*
X52495226Y-45635602D01*
X52417205Y-45447244D01*
X52303937Y-45277726D01*
X52159774Y-45133563D01*
X51990256Y-45020295D01*
X51941260Y-45000000D01*
X51990256Y-44979705D01*
X52159774Y-44866437D01*
X52303937Y-44722274D01*
X52417205Y-44552756D01*
X52495226Y-44364398D01*
X52535000Y-44164439D01*
X52535000Y-43960561D01*
X52495226Y-43760602D01*
X52417205Y-43572244D01*
X52303937Y-43402726D01*
X52260000Y-43358789D01*
X52260000Y-39243711D01*
X52303937Y-39199774D01*
X52417205Y-39030256D01*
X52495226Y-38841898D01*
X52535000Y-38641939D01*
X52535000Y-38540000D01*
X56342743Y-38540000D01*
X56371705Y-38834051D01*
X56457476Y-39116802D01*
X56596762Y-39377387D01*
X56784208Y-39605792D01*
X57012613Y-39793238D01*
X57043972Y-39810000D01*
X57012613Y-39826762D01*
X56784208Y-40014208D01*
X56596762Y-40242613D01*
X56457476Y-40503198D01*
X56371705Y-40785949D01*
X56342743Y-41080000D01*
X56371705Y-41374051D01*
X56457476Y-41656802D01*
X56596762Y-41917387D01*
X56784208Y-42145792D01*
X57012613Y-42333238D01*
X57240001Y-42454780D01*
X57240001Y-42796288D01*
X57196063Y-42840226D01*
X57082795Y-43009744D01*
X57004774Y-43198102D01*
X56965000Y-43398061D01*
X56965000Y-43601939D01*
X57004774Y-43801898D01*
X57082795Y-43990256D01*
X57196063Y-44159774D01*
X57340226Y-44303937D01*
X57509744Y-44417205D01*
X57698102Y-44495226D01*
X57898061Y-44535000D01*
X58101939Y-44535000D01*
X58301898Y-44495226D01*
X58490256Y-44417205D01*
X58659774Y-44303937D01*
X58803937Y-44159774D01*
X58917205Y-43990256D01*
X58995226Y-43801898D01*
X59035000Y-43601939D01*
X59035000Y-43398061D01*
X58995226Y-43198102D01*
X58917205Y-43009744D01*
X58803937Y-42840226D01*
X58760000Y-42796289D01*
X58760000Y-42454779D01*
X58987387Y-42333238D01*
X59215792Y-42145792D01*
X59403238Y-41917387D01*
X59542524Y-41656802D01*
X59628295Y-41374051D01*
X59657257Y-41080000D01*
X59649378Y-41000000D01*
X61697694Y-41000000D01*
X61726849Y-41296012D01*
X61813192Y-41580648D01*
X61953406Y-41842970D01*
X62142103Y-42072897D01*
X62357903Y-42250000D01*
X62142103Y-42427103D01*
X61953406Y-42657030D01*
X61813192Y-42919352D01*
X61726849Y-43203988D01*
X61697694Y-43500000D01*
X61726849Y-43796012D01*
X61813192Y-44080648D01*
X61953406Y-44342970D01*
X62142103Y-44572897D01*
X62372030Y-44761594D01*
X62634352Y-44901808D01*
X62918988Y-44988151D01*
X63140822Y-45010000D01*
X65039178Y-45010000D01*
X65261012Y-44988151D01*
X65545648Y-44901808D01*
X65807970Y-44761594D01*
X66037897Y-44572897D01*
X66226594Y-44342970D01*
X66366808Y-44080648D01*
X66453151Y-43796012D01*
X66482306Y-43500000D01*
X66453151Y-43203988D01*
X66366808Y-42919352D01*
X66226594Y-42657030D01*
X66037897Y-42427103D01*
X65822097Y-42250000D01*
X66037897Y-42072897D01*
X66226594Y-41842970D01*
X66366808Y-41580648D01*
X66453151Y-41296012D01*
X66482306Y-41000000D01*
X66453151Y-40703988D01*
X66366808Y-40419352D01*
X66276288Y-40250000D01*
X67207928Y-40250000D01*
X67220188Y-40374482D01*
X67256498Y-40494180D01*
X67315463Y-40604494D01*
X67394815Y-40701185D01*
X67491506Y-40780537D01*
X67601820Y-40839502D01*
X67721518Y-40875812D01*
X67846000Y-40888072D01*
X68810250Y-40885000D01*
X68969000Y-40726250D01*
X68969000Y-38627000D01*
X69223000Y-38627000D01*
X69223000Y-40726250D01*
X69381750Y-40885000D01*
X70346000Y-40888072D01*
X70470482Y-40875812D01*
X70590180Y-40839502D01*
X70700494Y-40780537D01*
X70797185Y-40701185D01*
X70876537Y-40604494D01*
X70935502Y-40494180D01*
X70971812Y-40374482D01*
X70984072Y-40250000D01*
X70981000Y-38785750D01*
X70822250Y-38627000D01*
X69223000Y-38627000D01*
X68969000Y-38627000D01*
X67369750Y-38627000D01*
X67211000Y-38785750D01*
X67207928Y-40250000D01*
X66276288Y-40250000D01*
X66226594Y-40157030D01*
X66037897Y-39927103D01*
X65807970Y-39738406D01*
X65545648Y-39598192D01*
X65261012Y-39511849D01*
X65039178Y-39490000D01*
X63140822Y-39490000D01*
X62918988Y-39511849D01*
X62634352Y-39598192D01*
X62372030Y-39738406D01*
X62142103Y-39927103D01*
X61953406Y-40157030D01*
X61813192Y-40419352D01*
X61726849Y-40703988D01*
X61697694Y-41000000D01*
X59649378Y-41000000D01*
X59628295Y-40785949D01*
X59542524Y-40503198D01*
X59403238Y-40242613D01*
X59215792Y-40014208D01*
X58987387Y-39826762D01*
X58956028Y-39810000D01*
X58987387Y-39793238D01*
X59215792Y-39605792D01*
X59403238Y-39377387D01*
X59542524Y-39116802D01*
X59628295Y-38834051D01*
X59657257Y-38540000D01*
X59628295Y-38245949D01*
X59542524Y-37963198D01*
X59403238Y-37702613D01*
X59215792Y-37474208D01*
X59209970Y-37469430D01*
X59259180Y-37454502D01*
X59369494Y-37395537D01*
X59466185Y-37316185D01*
X59545537Y-37219494D01*
X59604502Y-37109180D01*
X59640812Y-36989482D01*
X59653072Y-36865000D01*
X59653072Y-35135000D01*
X59640812Y-35010518D01*
X59604502Y-34890820D01*
X59545537Y-34780506D01*
X59466185Y-34683815D01*
X59369494Y-34604463D01*
X59259180Y-34545498D01*
X59139482Y-34509188D01*
X59015000Y-34496928D01*
X58760000Y-34496928D01*
X58760000Y-34203711D01*
X58803937Y-34159774D01*
X58917205Y-33990256D01*
X58995226Y-33801898D01*
X59035000Y-33601939D01*
X59035000Y-33500000D01*
X61697694Y-33500000D01*
X61726849Y-33796012D01*
X61813192Y-34080648D01*
X61953406Y-34342970D01*
X62142103Y-34572897D01*
X62357903Y-34750000D01*
X62142103Y-34927103D01*
X61953406Y-35157030D01*
X61813192Y-35419352D01*
X61726849Y-35703988D01*
X61697694Y-36000000D01*
X61726849Y-36296012D01*
X61813192Y-36580648D01*
X61953406Y-36842970D01*
X62142103Y-37072897D01*
X62372030Y-37261594D01*
X62634352Y-37401808D01*
X62918988Y-37488151D01*
X63140822Y-37510000D01*
X65039178Y-37510000D01*
X65261012Y-37488151D01*
X65545648Y-37401808D01*
X65807970Y-37261594D01*
X66037897Y-37072897D01*
X66226594Y-36842970D01*
X66276287Y-36750000D01*
X67207928Y-36750000D01*
X67211000Y-38214250D01*
X67369750Y-38373000D01*
X68969000Y-38373000D01*
X68969000Y-36273750D01*
X69223000Y-36273750D01*
X69223000Y-38373000D01*
X70822250Y-38373000D01*
X70981000Y-38214250D01*
X70984072Y-36750000D01*
X70971812Y-36625518D01*
X70935502Y-36505820D01*
X70876537Y-36395506D01*
X70797185Y-36298815D01*
X70700494Y-36219463D01*
X70590180Y-36160498D01*
X70470482Y-36124188D01*
X70346000Y-36111928D01*
X69381750Y-36115000D01*
X69223000Y-36273750D01*
X68969000Y-36273750D01*
X68810250Y-36115000D01*
X67846000Y-36111928D01*
X67721518Y-36124188D01*
X67601820Y-36160498D01*
X67491506Y-36219463D01*
X67394815Y-36298815D01*
X67315463Y-36395506D01*
X67256498Y-36505820D01*
X67220188Y-36625518D01*
X67207928Y-36750000D01*
X66276287Y-36750000D01*
X66366808Y-36580648D01*
X66453151Y-36296012D01*
X66482306Y-36000000D01*
X66453151Y-35703988D01*
X66366808Y-35419352D01*
X66226594Y-35157030D01*
X66037897Y-34927103D01*
X65822097Y-34750000D01*
X66037897Y-34572897D01*
X66226594Y-34342970D01*
X66366808Y-34080648D01*
X66453151Y-33796012D01*
X66482306Y-33500000D01*
X66453151Y-33203988D01*
X66366808Y-32919352D01*
X66226594Y-32657030D01*
X66037897Y-32427103D01*
X65807970Y-32238406D01*
X65545648Y-32098192D01*
X65261012Y-32011849D01*
X65039178Y-31990000D01*
X63140822Y-31990000D01*
X62918988Y-32011849D01*
X62634352Y-32098192D01*
X62372030Y-32238406D01*
X62142103Y-32427103D01*
X61953406Y-32657030D01*
X61813192Y-32919352D01*
X61726849Y-33203988D01*
X61697694Y-33500000D01*
X59035000Y-33500000D01*
X59035000Y-33398061D01*
X58995226Y-33198102D01*
X58917205Y-33009744D01*
X58803937Y-32840226D01*
X58659774Y-32696063D01*
X58490256Y-32582795D01*
X58301898Y-32504774D01*
X58101939Y-32465000D01*
X57898061Y-32465000D01*
X57698102Y-32504774D01*
X57509744Y-32582795D01*
X57340226Y-32696063D01*
X57196063Y-32840226D01*
X57082795Y-33009744D01*
X57004774Y-33198102D01*
X56965000Y-33398061D01*
X56965000Y-33601939D01*
X57004774Y-33801898D01*
X57082795Y-33990256D01*
X57196063Y-34159774D01*
X57240000Y-34203711D01*
X57240000Y-34496928D01*
X56985000Y-34496928D01*
X56860518Y-34509188D01*
X56740820Y-34545498D01*
X56630506Y-34604463D01*
X56533815Y-34683815D01*
X56454463Y-34780506D01*
X56395498Y-34890820D01*
X56359188Y-35010518D01*
X56346928Y-35135000D01*
X56346928Y-36865000D01*
X56359188Y-36989482D01*
X56395498Y-37109180D01*
X56454463Y-37219494D01*
X56533815Y-37316185D01*
X56630506Y-37395537D01*
X56740820Y-37454502D01*
X56790030Y-37469430D01*
X56784208Y-37474208D01*
X56596762Y-37702613D01*
X56457476Y-37963198D01*
X56371705Y-38245949D01*
X56342743Y-38540000D01*
X52535000Y-38540000D01*
X52535000Y-38438061D01*
X52495226Y-38238102D01*
X52417205Y-38049744D01*
X52303937Y-37880226D01*
X52260000Y-37836289D01*
X52260000Y-32641211D01*
X52303937Y-32597274D01*
X52417205Y-32427756D01*
X52495226Y-32239398D01*
X52535000Y-32039439D01*
X52535000Y-31835561D01*
X52495226Y-31635602D01*
X52417205Y-31447244D01*
X52303937Y-31277726D01*
X52159774Y-31133563D01*
X51990256Y-31020295D01*
X51801898Y-30942274D01*
X51601939Y-30902500D01*
X51398061Y-30902500D01*
X51198102Y-30942274D01*
X51009744Y-31020295D01*
X50840226Y-31133563D01*
X50696063Y-31277726D01*
X50582795Y-31447244D01*
X50504774Y-31635602D01*
X50465000Y-31835561D01*
X50465000Y-32039439D01*
X50504774Y-32239398D01*
X50582795Y-32427756D01*
X50696063Y-32597274D01*
X50740000Y-32641211D01*
X50740001Y-37836288D01*
X50696063Y-37880226D01*
X50582795Y-38049744D01*
X50504774Y-38238102D01*
X50465000Y-38438061D01*
X50465000Y-38641939D01*
X50504774Y-38841898D01*
X50582795Y-39030256D01*
X50696063Y-39199774D01*
X50740000Y-39243711D01*
X50740001Y-43358788D01*
X50696063Y-43402726D01*
X50582795Y-43572244D01*
X50504774Y-43760602D01*
X50465000Y-43960561D01*
X50465000Y-44164439D01*
X50504774Y-44364398D01*
X50582795Y-44552756D01*
X50696063Y-44722274D01*
X50840226Y-44866437D01*
X51009744Y-44979705D01*
X51058740Y-45000000D01*
X51009744Y-45020295D01*
X50840226Y-45133563D01*
X50696063Y-45277726D01*
X50582795Y-45447244D01*
X50504774Y-45635602D01*
X50465000Y-45835561D01*
X50465000Y-46039439D01*
X50504774Y-46239398D01*
X50582795Y-46427756D01*
X50696063Y-46597274D01*
X50740000Y-46641211D01*
X50740001Y-48276290D01*
X50659774Y-48196063D01*
X50490256Y-48082795D01*
X50301898Y-48004774D01*
X50101939Y-47965000D01*
X49898061Y-47965000D01*
X49698102Y-48004774D01*
X49509744Y-48082795D01*
X49340226Y-48196063D01*
X49260000Y-48276289D01*
X49260000Y-46641211D01*
X49303937Y-46597274D01*
X49417205Y-46427756D01*
X49495226Y-46239398D01*
X49535000Y-46039439D01*
X49535000Y-45835561D01*
X49495226Y-45635602D01*
X49417205Y-45447244D01*
X49303937Y-45277726D01*
X49159774Y-45133563D01*
X48990256Y-45020295D01*
X48941260Y-45000000D01*
X48990256Y-44979705D01*
X49159774Y-44866437D01*
X49303937Y-44722274D01*
X49417205Y-44552756D01*
X49495226Y-44364398D01*
X49535000Y-44164439D01*
X49535000Y-43960561D01*
X49495226Y-43760602D01*
X49417205Y-43572244D01*
X49303937Y-43402726D01*
X49260000Y-43358789D01*
X49260000Y-38266211D01*
X49303937Y-38222274D01*
X49417205Y-38052756D01*
X49495226Y-37864398D01*
X49535000Y-37664439D01*
X49535000Y-37460561D01*
X49495226Y-37260602D01*
X49417205Y-37072244D01*
X49303937Y-36902726D01*
X49260000Y-36858789D01*
X49260000Y-32641211D01*
X49303937Y-32597274D01*
X49417205Y-32427756D01*
X49495226Y-32239398D01*
X49535000Y-32039439D01*
X49535000Y-31835561D01*
X49495226Y-31635602D01*
X49417205Y-31447244D01*
X49303937Y-31277726D01*
X49159774Y-31133563D01*
X48990256Y-31020295D01*
X48801898Y-30942274D01*
X48601939Y-30902500D01*
X48398061Y-30902500D01*
X48198102Y-30942274D01*
X48009744Y-31020295D01*
X47840226Y-31133563D01*
X47696063Y-31277726D01*
X47582795Y-31447244D01*
X47504774Y-31635602D01*
X47465000Y-31835561D01*
X44260000Y-31835561D01*
X44260000Y-27703711D01*
X44303937Y-27659774D01*
X44417205Y-27490256D01*
X44495226Y-27301898D01*
X44535000Y-27101939D01*
X44535000Y-26898061D01*
X48965000Y-26898061D01*
X48965000Y-27101939D01*
X49004774Y-27301898D01*
X49082795Y-27490256D01*
X49196063Y-27659774D01*
X49240000Y-27703711D01*
X49240001Y-29358788D01*
X49196063Y-29402726D01*
X49082795Y-29572244D01*
X49004774Y-29760602D01*
X48965000Y-29960561D01*
X48965000Y-30164439D01*
X49004774Y-30364398D01*
X49082795Y-30552756D01*
X49196063Y-30722274D01*
X49340226Y-30866437D01*
X49509744Y-30979705D01*
X49698102Y-31057726D01*
X49898061Y-31097500D01*
X50101939Y-31097500D01*
X50301898Y-31057726D01*
X50490256Y-30979705D01*
X50659774Y-30866437D01*
X50803937Y-30722274D01*
X50917205Y-30552756D01*
X50995226Y-30364398D01*
X51035000Y-30164439D01*
X51035000Y-29960561D01*
X50995226Y-29760602D01*
X50917205Y-29572244D01*
X50803937Y-29402726D01*
X50760000Y-29358789D01*
X50760000Y-27703711D01*
X50803937Y-27659774D01*
X50917205Y-27490256D01*
X50995226Y-27301898D01*
X51035000Y-27101939D01*
X51035000Y-26898061D01*
X50995226Y-26698102D01*
X50917205Y-26509744D01*
X50803937Y-26340226D01*
X50659774Y-26196063D01*
X50490256Y-26082795D01*
X50301898Y-26004774D01*
X50101939Y-25965000D01*
X49898061Y-25965000D01*
X49698102Y-26004774D01*
X49509744Y-26082795D01*
X49340226Y-26196063D01*
X49196063Y-26340226D01*
X49082795Y-26509744D01*
X49004774Y-26698102D01*
X48965000Y-26898061D01*
X44535000Y-26898061D01*
X44495226Y-26698102D01*
X44417205Y-26509744D01*
X44303937Y-26340226D01*
X44159774Y-26196063D01*
X43990256Y-26082795D01*
X43801898Y-26004774D01*
X43601939Y-25965000D01*
X43398061Y-25965000D01*
X43198102Y-26004774D01*
X43009744Y-26082795D01*
X42840226Y-26196063D01*
X42750000Y-26286289D01*
X42659774Y-26196063D01*
X42490256Y-26082795D01*
X42301898Y-26004774D01*
X42101939Y-25965000D01*
X41898061Y-25965000D01*
X41698102Y-26004774D01*
X41509744Y-26082795D01*
X41340226Y-26196063D01*
X41196063Y-26340226D01*
X41082795Y-26509744D01*
X41004774Y-26698102D01*
X40965000Y-26898061D01*
X39792266Y-26898061D01*
X39773151Y-26703988D01*
X39686808Y-26419352D01*
X39546594Y-26157030D01*
X39357897Y-25927103D01*
X39127970Y-25738406D01*
X38981283Y-25660000D01*
X75490058Y-25660000D01*
X75539141Y-63398800D01*
X25660000Y-63398800D01*
X25660000Y-57648061D01*
X41965000Y-57648061D01*
X41965000Y-57851939D01*
X42004774Y-58051898D01*
X42082795Y-58240256D01*
X42196063Y-58409774D01*
X42340226Y-58553937D01*
X42509744Y-58667205D01*
X42698102Y-58745226D01*
X42898061Y-58785000D01*
X43101939Y-58785000D01*
X43301898Y-58745226D01*
X43490256Y-58667205D01*
X43659774Y-58553937D01*
X43803937Y-58409774D01*
X43917205Y-58240256D01*
X43995226Y-58051898D01*
X44035000Y-57851939D01*
X44035000Y-57648061D01*
X43995226Y-57448102D01*
X43917205Y-57259744D01*
X43803937Y-57090226D01*
X43659774Y-56946063D01*
X43490256Y-56832795D01*
X43301898Y-56754774D01*
X43101939Y-56715000D01*
X42898061Y-56715000D01*
X42698102Y-56754774D01*
X42509744Y-56832795D01*
X42340226Y-56946063D01*
X42196063Y-57090226D01*
X42082795Y-57259744D01*
X42004774Y-57448102D01*
X41965000Y-57648061D01*
X25660000Y-57648061D01*
X25660000Y-52500000D01*
X35017694Y-52500000D01*
X35046849Y-52796012D01*
X35133192Y-53080648D01*
X35273406Y-53342970D01*
X35462103Y-53572897D01*
X35677903Y-53750000D01*
X35462103Y-53927103D01*
X35273406Y-54157030D01*
X35133192Y-54419352D01*
X35046849Y-54703988D01*
X35017694Y-55000000D01*
X35046849Y-55296012D01*
X35133192Y-55580648D01*
X35273406Y-55842970D01*
X35462103Y-56072897D01*
X35692030Y-56261594D01*
X35954352Y-56401808D01*
X36238988Y-56488151D01*
X36460822Y-56510000D01*
X38359178Y-56510000D01*
X38581012Y-56488151D01*
X38865648Y-56401808D01*
X39127970Y-56261594D01*
X39357897Y-56072897D01*
X39546594Y-55842970D01*
X39686808Y-55580648D01*
X39773151Y-55296012D01*
X39802306Y-55000000D01*
X39773151Y-54703988D01*
X39686808Y-54419352D01*
X39546594Y-54157030D01*
X39357897Y-53927103D01*
X39142097Y-53750000D01*
X39357897Y-53572897D01*
X39546594Y-53342970D01*
X39686808Y-53080648D01*
X39773151Y-52796012D01*
X39802306Y-52500000D01*
X39773151Y-52203988D01*
X39686808Y-51919352D01*
X39546594Y-51657030D01*
X39357897Y-51427103D01*
X39127970Y-51238406D01*
X38865648Y-51098192D01*
X38581012Y-51011849D01*
X38359178Y-50990000D01*
X36460822Y-50990000D01*
X36238988Y-51011849D01*
X35954352Y-51098192D01*
X35692030Y-51238406D01*
X35462103Y-51427103D01*
X35273406Y-51657030D01*
X35133192Y-51919352D01*
X35046849Y-52203988D01*
X35017694Y-52500000D01*
X25660000Y-52500000D01*
X25660000Y-51750000D01*
X30515928Y-51750000D01*
X30528188Y-51874482D01*
X30564498Y-51994180D01*
X30623463Y-52104494D01*
X30702815Y-52201185D01*
X30799506Y-52280537D01*
X30909820Y-52339502D01*
X31029518Y-52375812D01*
X31154000Y-52388072D01*
X32118250Y-52385000D01*
X32277000Y-52226250D01*
X32277000Y-50127000D01*
X32531000Y-50127000D01*
X32531000Y-52226250D01*
X32689750Y-52385000D01*
X33654000Y-52388072D01*
X33778482Y-52375812D01*
X33898180Y-52339502D01*
X34008494Y-52280537D01*
X34105185Y-52201185D01*
X34184537Y-52104494D01*
X34243502Y-51994180D01*
X34279812Y-51874482D01*
X34292072Y-51750000D01*
X34290154Y-50835561D01*
X39965000Y-50835561D01*
X39965000Y-51039439D01*
X40004774Y-51239398D01*
X40082795Y-51427756D01*
X40196063Y-51597274D01*
X40240000Y-51641211D01*
X40240001Y-54327588D01*
X40196063Y-54371526D01*
X40082795Y-54541044D01*
X40004774Y-54729402D01*
X39965000Y-54929361D01*
X39965000Y-55133239D01*
X40004774Y-55333198D01*
X40082795Y-55521556D01*
X40196063Y-55691074D01*
X40340226Y-55835237D01*
X40509744Y-55948505D01*
X40698102Y-56026526D01*
X40898061Y-56066300D01*
X41101939Y-56066300D01*
X41301898Y-56026526D01*
X41490256Y-55948505D01*
X41659774Y-55835237D01*
X41803937Y-55691074D01*
X41917205Y-55521556D01*
X41995226Y-55333198D01*
X42035000Y-55133239D01*
X42035000Y-54929361D01*
X41995226Y-54729402D01*
X41917205Y-54541044D01*
X41803937Y-54371526D01*
X41760000Y-54327589D01*
X41760000Y-51641211D01*
X41803937Y-51597274D01*
X41917205Y-51427756D01*
X41995226Y-51239398D01*
X42035000Y-51039439D01*
X42035000Y-50835561D01*
X41995226Y-50635602D01*
X41917205Y-50447244D01*
X41803937Y-50277726D01*
X41659774Y-50133563D01*
X41490256Y-50020295D01*
X41301898Y-49942274D01*
X41101939Y-49902500D01*
X40898061Y-49902500D01*
X40698102Y-49942274D01*
X40509744Y-50020295D01*
X40340226Y-50133563D01*
X40196063Y-50277726D01*
X40082795Y-50447244D01*
X40004774Y-50635602D01*
X39965000Y-50835561D01*
X34290154Y-50835561D01*
X34289000Y-50285750D01*
X34130250Y-50127000D01*
X32531000Y-50127000D01*
X32277000Y-50127000D01*
X30677750Y-50127000D01*
X30519000Y-50285750D01*
X30515928Y-51750000D01*
X25660000Y-51750000D01*
X25660000Y-49898061D01*
X44565000Y-49898061D01*
X44565000Y-50101939D01*
X44604774Y-50301898D01*
X44682795Y-50490256D01*
X44796063Y-50659774D01*
X44840000Y-50703711D01*
X44840001Y-53161288D01*
X44796063Y-53205226D01*
X44682795Y-53374744D01*
X44604774Y-53563102D01*
X44565000Y-53763061D01*
X44565000Y-53966939D01*
X44604774Y-54166898D01*
X44682795Y-54355256D01*
X44796063Y-54524774D01*
X44940226Y-54668937D01*
X45109744Y-54782205D01*
X45298102Y-54860226D01*
X45498061Y-54900000D01*
X45701939Y-54900000D01*
X45901898Y-54860226D01*
X46090256Y-54782205D01*
X46259774Y-54668937D01*
X46403937Y-54524774D01*
X46517205Y-54355256D01*
X46595226Y-54166898D01*
X46635000Y-53966939D01*
X46635000Y-53763061D01*
X46595226Y-53563102D01*
X46517205Y-53374744D01*
X46403937Y-53205226D01*
X46360000Y-53161289D01*
X46360000Y-50703711D01*
X46403937Y-50659774D01*
X46517205Y-50490256D01*
X46595226Y-50301898D01*
X46635000Y-50101939D01*
X46635000Y-49898061D01*
X46595226Y-49698102D01*
X46517205Y-49509744D01*
X46403937Y-49340226D01*
X46259774Y-49196063D01*
X46090256Y-49082795D01*
X45901898Y-49004774D01*
X45701939Y-48965000D01*
X45498061Y-48965000D01*
X45298102Y-49004774D01*
X45109744Y-49082795D01*
X44940226Y-49196063D01*
X44796063Y-49340226D01*
X44682795Y-49509744D01*
X44604774Y-49698102D01*
X44565000Y-49898061D01*
X25660000Y-49898061D01*
X25660000Y-48250000D01*
X30515928Y-48250000D01*
X30519000Y-49714250D01*
X30677750Y-49873000D01*
X32277000Y-49873000D01*
X32277000Y-47773750D01*
X32531000Y-47773750D01*
X32531000Y-49873000D01*
X34130250Y-49873000D01*
X34289000Y-49714250D01*
X34292072Y-48250000D01*
X34279812Y-48125518D01*
X34243502Y-48005820D01*
X34184537Y-47895506D01*
X34105185Y-47798815D01*
X34008494Y-47719463D01*
X33898180Y-47660498D01*
X33778482Y-47624188D01*
X33654000Y-47611928D01*
X32689750Y-47615000D01*
X32531000Y-47773750D01*
X32277000Y-47773750D01*
X32118250Y-47615000D01*
X31154000Y-47611928D01*
X31029518Y-47624188D01*
X30909820Y-47660498D01*
X30799506Y-47719463D01*
X30702815Y-47798815D01*
X30623463Y-47895506D01*
X30564498Y-48005820D01*
X30528188Y-48125518D01*
X30515928Y-48250000D01*
X25660000Y-48250000D01*
X25660000Y-45000000D01*
X35017694Y-45000000D01*
X35046849Y-45296012D01*
X35133192Y-45580648D01*
X35273406Y-45842970D01*
X35462103Y-46072897D01*
X35677903Y-46250000D01*
X35462103Y-46427103D01*
X35273406Y-46657030D01*
X35133192Y-46919352D01*
X35046849Y-47203988D01*
X35017694Y-47500000D01*
X35046849Y-47796012D01*
X35133192Y-48080648D01*
X35273406Y-48342970D01*
X35462103Y-48572897D01*
X35692030Y-48761594D01*
X35954352Y-48901808D01*
X36238988Y-48988151D01*
X36460822Y-49010000D01*
X38359178Y-49010000D01*
X38581012Y-48988151D01*
X38865648Y-48901808D01*
X39127970Y-48761594D01*
X39357897Y-48572897D01*
X39546594Y-48342970D01*
X39686808Y-48080648D01*
X39773151Y-47796012D01*
X39802306Y-47500000D01*
X39773151Y-47203988D01*
X39686808Y-46919352D01*
X39546594Y-46657030D01*
X39357897Y-46427103D01*
X39142097Y-46250000D01*
X39357897Y-46072897D01*
X39546594Y-45842970D01*
X39686808Y-45580648D01*
X39773151Y-45296012D01*
X39802306Y-45000000D01*
X39773151Y-44703988D01*
X39686808Y-44419352D01*
X39546594Y-44157030D01*
X39357897Y-43927103D01*
X39127970Y-43738406D01*
X38865648Y-43598192D01*
X38581012Y-43511849D01*
X38359178Y-43490000D01*
X36460822Y-43490000D01*
X36238988Y-43511849D01*
X35954352Y-43598192D01*
X35692030Y-43738406D01*
X35462103Y-43927103D01*
X35273406Y-44157030D01*
X35133192Y-44419352D01*
X35046849Y-44703988D01*
X35017694Y-45000000D01*
X25660000Y-45000000D01*
X25660000Y-34500000D01*
X35017694Y-34500000D01*
X35046849Y-34796012D01*
X35133192Y-35080648D01*
X35273406Y-35342970D01*
X35462103Y-35572897D01*
X35677903Y-35750000D01*
X35462103Y-35927103D01*
X35273406Y-36157030D01*
X35133192Y-36419352D01*
X35046849Y-36703988D01*
X35017694Y-37000000D01*
X35046849Y-37296012D01*
X35133192Y-37580648D01*
X35273406Y-37842970D01*
X35462103Y-38072897D01*
X35692030Y-38261594D01*
X35954352Y-38401808D01*
X36238988Y-38488151D01*
X36460822Y-38510000D01*
X38359178Y-38510000D01*
X38581012Y-38488151D01*
X38865648Y-38401808D01*
X39127970Y-38261594D01*
X39357897Y-38072897D01*
X39546594Y-37842970D01*
X39686808Y-37580648D01*
X39773151Y-37296012D01*
X39802306Y-37000000D01*
X39773151Y-36703988D01*
X39686808Y-36419352D01*
X39546594Y-36157030D01*
X39357897Y-35927103D01*
X39142097Y-35750000D01*
X39357897Y-35572897D01*
X39546594Y-35342970D01*
X39686808Y-35080648D01*
X39773151Y-34796012D01*
X39802306Y-34500000D01*
X39773151Y-34203988D01*
X39686808Y-33919352D01*
X39546594Y-33657030D01*
X39357897Y-33427103D01*
X39127970Y-33238406D01*
X38865648Y-33098192D01*
X38581012Y-33011849D01*
X38359178Y-32990000D01*
X36460822Y-32990000D01*
X36238988Y-33011849D01*
X35954352Y-33098192D01*
X35692030Y-33238406D01*
X35462103Y-33427103D01*
X35273406Y-33657030D01*
X35133192Y-33919352D01*
X35046849Y-34203988D01*
X35017694Y-34500000D01*
X25660000Y-34500000D01*
X25660000Y-33750000D01*
X30515928Y-33750000D01*
X30528188Y-33874482D01*
X30564498Y-33994180D01*
X30623463Y-34104494D01*
X30702815Y-34201185D01*
X30799506Y-34280537D01*
X30909820Y-34339502D01*
X31029518Y-34375812D01*
X31154000Y-34388072D01*
X32118250Y-34385000D01*
X32277000Y-34226250D01*
X32277000Y-32127000D01*
X32531000Y-32127000D01*
X32531000Y-34226250D01*
X32689750Y-34385000D01*
X33654000Y-34388072D01*
X33778482Y-34375812D01*
X33898180Y-34339502D01*
X34008494Y-34280537D01*
X34105185Y-34201185D01*
X34184537Y-34104494D01*
X34243502Y-33994180D01*
X34279812Y-33874482D01*
X34292072Y-33750000D01*
X34289000Y-32285750D01*
X34130250Y-32127000D01*
X32531000Y-32127000D01*
X32277000Y-32127000D01*
X30677750Y-32127000D01*
X30519000Y-32285750D01*
X30515928Y-33750000D01*
X25660000Y-33750000D01*
X25660000Y-30250000D01*
X30515928Y-30250000D01*
X30519000Y-31714250D01*
X30677750Y-31873000D01*
X32277000Y-31873000D01*
X32277000Y-29773750D01*
X32531000Y-29773750D01*
X32531000Y-31873000D01*
X34130250Y-31873000D01*
X34289000Y-31714250D01*
X34292072Y-30250000D01*
X34279812Y-30125518D01*
X34243502Y-30005820D01*
X34184537Y-29895506D01*
X34105185Y-29798815D01*
X34008494Y-29719463D01*
X33898180Y-29660498D01*
X33778482Y-29624188D01*
X33654000Y-29611928D01*
X32689750Y-29615000D01*
X32531000Y-29773750D01*
X32277000Y-29773750D01*
X32118250Y-29615000D01*
X31154000Y-29611928D01*
X31029518Y-29624188D01*
X30909820Y-29660498D01*
X30799506Y-29719463D01*
X30702815Y-29798815D01*
X30623463Y-29895506D01*
X30564498Y-30005820D01*
X30528188Y-30125518D01*
X30515928Y-30250000D01*
X25660000Y-30250000D01*
X25660000Y-25660000D01*
X35838717Y-25660000D01*
X35692030Y-25738406D01*
X35692030Y-25738406D01*
G37*
X35692030Y-25738406D02*
X35462103Y-25927103D01*
X35273406Y-26157030D01*
X35133192Y-26419352D01*
X35046849Y-26703988D01*
X35017694Y-27000000D01*
X35046849Y-27296012D01*
X35133192Y-27580648D01*
X35273406Y-27842970D01*
X35462103Y-28072897D01*
X35677903Y-28250000D01*
X35462103Y-28427103D01*
X35273406Y-28657030D01*
X35133192Y-28919352D01*
X35046849Y-29203988D01*
X35017694Y-29500000D01*
X35046849Y-29796012D01*
X35133192Y-30080648D01*
X35273406Y-30342970D01*
X35462103Y-30572897D01*
X35692030Y-30761594D01*
X35954352Y-30901808D01*
X36238988Y-30988151D01*
X36460822Y-31010000D01*
X38359178Y-31010000D01*
X38581012Y-30988151D01*
X38865648Y-30901808D01*
X39127970Y-30761594D01*
X39357897Y-30572897D01*
X39546594Y-30342970D01*
X39686808Y-30080648D01*
X39773151Y-29796012D01*
X39802306Y-29500000D01*
X39773151Y-29203988D01*
X39686808Y-28919352D01*
X39546594Y-28657030D01*
X39357897Y-28427103D01*
X39142097Y-28250000D01*
X39357897Y-28072897D01*
X39546594Y-27842970D01*
X39686808Y-27580648D01*
X39773151Y-27296012D01*
X39802306Y-27000000D01*
X39792266Y-26898061D01*
X40965000Y-26898061D01*
X40965000Y-27101939D01*
X41004774Y-27301898D01*
X41082795Y-27490256D01*
X41196063Y-27659774D01*
X41240000Y-27703711D01*
X41240001Y-44296288D01*
X41196063Y-44340226D01*
X41082795Y-44509744D01*
X41004774Y-44698102D01*
X40965000Y-44898061D01*
X40965000Y-45101939D01*
X41004774Y-45301898D01*
X41082795Y-45490256D01*
X41196063Y-45659774D01*
X41340226Y-45803937D01*
X41509744Y-45917205D01*
X41698102Y-45995226D01*
X41898061Y-46035000D01*
X42101939Y-46035000D01*
X42301898Y-45995226D01*
X42490256Y-45917205D01*
X42659774Y-45803937D01*
X42803937Y-45659774D01*
X42917205Y-45490256D01*
X42995226Y-45301898D01*
X43035000Y-45101939D01*
X43035000Y-44898061D01*
X42995226Y-44698102D01*
X42917205Y-44509744D01*
X42803937Y-44340226D01*
X42760000Y-44296289D01*
X42760000Y-37723711D01*
X42840226Y-37803937D01*
X43009744Y-37917205D01*
X43198102Y-37995226D01*
X43398061Y-38035000D01*
X43601939Y-38035000D01*
X43801898Y-37995226D01*
X43990256Y-37917205D01*
X44159774Y-37803937D01*
X44303937Y-37659774D01*
X44417205Y-37490256D01*
X44495226Y-37301898D01*
X44535000Y-37101939D01*
X44535000Y-36898061D01*
X44495226Y-36698102D01*
X44417205Y-36509744D01*
X44303937Y-36340226D01*
X44260000Y-36296289D01*
X44260000Y-31835561D01*
X47465000Y-31835561D01*
X47465000Y-32039439D01*
X47504774Y-32239398D01*
X47582795Y-32427756D01*
X47696063Y-32597274D01*
X47740000Y-32641211D01*
X47740001Y-36858788D01*
X47696063Y-36902726D01*
X47582795Y-37072244D01*
X47504774Y-37260602D01*
X47465000Y-37460561D01*
X47465000Y-37664439D01*
X47504774Y-37864398D01*
X47582795Y-38052756D01*
X47696063Y-38222274D01*
X47740000Y-38266211D01*
X47740001Y-43358788D01*
X47696063Y-43402726D01*
X47582795Y-43572244D01*
X47504774Y-43760602D01*
X47465000Y-43960561D01*
X47465000Y-44164439D01*
X47504774Y-44364398D01*
X47582795Y-44552756D01*
X47696063Y-44722274D01*
X47840226Y-44866437D01*
X48009744Y-44979705D01*
X48058740Y-45000000D01*
X48009744Y-45020295D01*
X47840226Y-45133563D01*
X47696063Y-45277726D01*
X47582795Y-45447244D01*
X47504774Y-45635602D01*
X47465000Y-45835561D01*
X47465000Y-46039439D01*
X47504774Y-46239398D01*
X47582795Y-46427756D01*
X47696063Y-46597274D01*
X47740000Y-46641211D01*
X47740001Y-48358788D01*
X47696063Y-48402726D01*
X47582795Y-48572244D01*
X47504774Y-48760602D01*
X47465000Y-48960561D01*
X47465000Y-49164439D01*
X47504774Y-49364398D01*
X47573887Y-49531250D01*
X47504774Y-49698102D01*
X47465000Y-49898061D01*
X47465000Y-50101939D01*
X47504774Y-50301898D01*
X47582795Y-50490256D01*
X47696063Y-50659774D01*
X47840226Y-50803937D01*
X48009744Y-50917205D01*
X48198102Y-50995226D01*
X48398061Y-51035000D01*
X48601939Y-51035000D01*
X48801898Y-50995226D01*
X48990256Y-50917205D01*
X49159774Y-50803937D01*
X49240001Y-50723710D01*
X49240000Y-54431289D01*
X49196063Y-54475226D01*
X49082795Y-54644744D01*
X49004774Y-54833102D01*
X48965000Y-55033061D01*
X48965000Y-55236939D01*
X49004774Y-55436898D01*
X49082795Y-55625256D01*
X49179510Y-55770000D01*
X49082795Y-55914744D01*
X49004774Y-56103102D01*
X48965000Y-56303061D01*
X48965000Y-56506939D01*
X49004774Y-56706898D01*
X49082795Y-56895256D01*
X49196063Y-57064774D01*
X49240001Y-57108712D01*
X49240000Y-60023889D01*
X49196063Y-60067826D01*
X49082795Y-60237344D01*
X49004774Y-60425702D01*
X48965000Y-60625661D01*
X48965000Y-60829539D01*
X49004774Y-61029498D01*
X49082795Y-61217856D01*
X49196063Y-61387374D01*
X49340226Y-61531537D01*
X49509744Y-61644805D01*
X49698102Y-61722826D01*
X49898061Y-61762600D01*
X50101939Y-61762600D01*
X50301898Y-61722826D01*
X50490256Y-61644805D01*
X50659774Y-61531537D01*
X50803937Y-61387374D01*
X50917205Y-61217856D01*
X50995226Y-61029498D01*
X51035000Y-60829539D01*
X51035000Y-60625661D01*
X50995226Y-60425702D01*
X50917205Y-60237344D01*
X50803937Y-60067826D01*
X50760000Y-60023889D01*
X50760000Y-57108711D01*
X50803937Y-57064774D01*
X50917205Y-56895256D01*
X50995226Y-56706898D01*
X51035000Y-56506939D01*
X51035000Y-56303061D01*
X50995226Y-56103102D01*
X50917205Y-55914744D01*
X50820490Y-55770000D01*
X50917205Y-55625256D01*
X50995226Y-55436898D01*
X51035000Y-55236939D01*
X51035000Y-55033061D01*
X53765000Y-55033061D01*
X53765000Y-55236939D01*
X53804774Y-55436898D01*
X53882795Y-55625256D01*
X53996063Y-55794774D01*
X54040000Y-55838711D01*
X54040001Y-57119888D01*
X54026263Y-57133626D01*
X53912995Y-57303144D01*
X53834974Y-57491502D01*
X53795200Y-57691461D01*
X53795200Y-57895339D01*
X53834974Y-58095298D01*
X53912995Y-58283656D01*
X54026263Y-58453174D01*
X54170426Y-58597337D01*
X54339944Y-58710605D01*
X54528302Y-58788626D01*
X54728261Y-58828400D01*
X54932139Y-58828400D01*
X55132098Y-58788626D01*
X55320456Y-58710605D01*
X55489974Y-58597337D01*
X55634137Y-58453174D01*
X55747405Y-58283656D01*
X55825426Y-58095298D01*
X55865200Y-57895339D01*
X55865200Y-57691461D01*
X55825426Y-57491502D01*
X55747405Y-57303144D01*
X55634137Y-57133626D01*
X55560000Y-57059489D01*
X55560000Y-55838711D01*
X55603937Y-55794774D01*
X55717205Y-55625256D01*
X55795226Y-55436898D01*
X55835000Y-55236939D01*
X55835000Y-55033061D01*
X55795226Y-54833102D01*
X55717205Y-54644744D01*
X55603937Y-54475226D01*
X55459774Y-54331063D01*
X55290256Y-54217795D01*
X55101898Y-54139774D01*
X54901939Y-54100000D01*
X54698061Y-54100000D01*
X54498102Y-54139774D01*
X54309744Y-54217795D01*
X54140226Y-54331063D01*
X53996063Y-54475226D01*
X53882795Y-54644744D01*
X53804774Y-54833102D01*
X53765000Y-55033061D01*
X51035000Y-55033061D01*
X50995226Y-54833102D01*
X50917205Y-54644744D01*
X50803937Y-54475226D01*
X50760000Y-54431289D01*
X50760000Y-53763061D01*
X65565000Y-53763061D01*
X65565000Y-53966939D01*
X65604774Y-54166898D01*
X65682795Y-54355256D01*
X65796063Y-54524774D01*
X65840000Y-54568711D01*
X65840001Y-55023888D01*
X65796063Y-55067826D01*
X65682795Y-55237344D01*
X65604774Y-55425702D01*
X65565000Y-55625661D01*
X65565000Y-55829539D01*
X65604774Y-56029498D01*
X65682795Y-56217856D01*
X65796063Y-56387374D01*
X65840000Y-56431311D01*
X65840001Y-56558788D01*
X65796063Y-56602726D01*
X65682795Y-56772244D01*
X65604774Y-56960602D01*
X65565000Y-57160561D01*
X65565000Y-57364439D01*
X65604774Y-57564398D01*
X65682795Y-57752756D01*
X65796063Y-57922274D01*
X65940226Y-58066437D01*
X66109744Y-58179705D01*
X66158740Y-58200000D01*
X66109744Y-58220295D01*
X65940226Y-58333563D01*
X65796063Y-58477726D01*
X65682795Y-58647244D01*
X65604774Y-58835602D01*
X65565000Y-59035561D01*
X65565000Y-59239439D01*
X65604774Y-59439398D01*
X65682795Y-59627756D01*
X65796063Y-59797274D01*
X65840000Y-59841211D01*
X65840001Y-60096288D01*
X65796063Y-60140226D01*
X65682795Y-60309744D01*
X65604774Y-60498102D01*
X65565000Y-60698061D01*
X65565000Y-60901939D01*
X65604774Y-61101898D01*
X65682795Y-61290256D01*
X65796063Y-61459774D01*
X65940226Y-61603937D01*
X66109744Y-61717205D01*
X66298102Y-61795226D01*
X66498061Y-61835000D01*
X66701939Y-61835000D01*
X66901898Y-61795226D01*
X67090256Y-61717205D01*
X67259774Y-61603937D01*
X67403937Y-61459774D01*
X67517205Y-61290256D01*
X67595226Y-61101898D01*
X67635000Y-60901939D01*
X67635000Y-60698061D01*
X67612273Y-60583803D01*
X69964800Y-60583803D01*
X69964800Y-60871397D01*
X70020907Y-61153466D01*
X70130965Y-61419169D01*
X70290744Y-61658296D01*
X70494104Y-61861656D01*
X70733231Y-62021435D01*
X70998934Y-62131493D01*
X71281003Y-62187600D01*
X71568597Y-62187600D01*
X71850666Y-62131493D01*
X72116369Y-62021435D01*
X72355496Y-61861656D01*
X72558856Y-61658296D01*
X72718635Y-61419169D01*
X72828693Y-61153466D01*
X72884800Y-60871397D01*
X72884800Y-60583803D01*
X72828693Y-60301734D01*
X72718635Y-60036031D01*
X72558856Y-59796904D01*
X72355496Y-59593544D01*
X72116369Y-59433765D01*
X71850666Y-59323707D01*
X71568597Y-59267600D01*
X71281003Y-59267600D01*
X70998934Y-59323707D01*
X70733231Y-59433765D01*
X70494104Y-59593544D01*
X70290744Y-59796904D01*
X70130965Y-60036031D01*
X70020907Y-60301734D01*
X69964800Y-60583803D01*
X67612273Y-60583803D01*
X67595226Y-60498102D01*
X67517205Y-60309744D01*
X67403937Y-60140226D01*
X67360000Y-60096289D01*
X67360000Y-59841211D01*
X67403937Y-59797274D01*
X67517205Y-59627756D01*
X67595226Y-59439398D01*
X67635000Y-59239439D01*
X67635000Y-59035561D01*
X67595226Y-58835602D01*
X67517205Y-58647244D01*
X67403937Y-58477726D01*
X67259774Y-58333563D01*
X67090256Y-58220295D01*
X67041260Y-58200000D01*
X67090256Y-58179705D01*
X67259774Y-58066437D01*
X67403937Y-57922274D01*
X67517205Y-57752756D01*
X67595226Y-57564398D01*
X67635000Y-57364439D01*
X67635000Y-57160561D01*
X67595226Y-56960602D01*
X67517205Y-56772244D01*
X67403937Y-56602726D01*
X67360000Y-56558789D01*
X67360000Y-56431311D01*
X67403937Y-56387374D01*
X67517205Y-56217856D01*
X67595226Y-56029498D01*
X67635000Y-55829539D01*
X67635000Y-55625661D01*
X67626674Y-55583803D01*
X69964800Y-55583803D01*
X69964800Y-55871397D01*
X70020907Y-56153466D01*
X70130965Y-56419169D01*
X70290744Y-56658296D01*
X70494104Y-56861656D01*
X70733231Y-57021435D01*
X70998934Y-57131493D01*
X71281003Y-57187600D01*
X71568597Y-57187600D01*
X71850666Y-57131493D01*
X72116369Y-57021435D01*
X72355496Y-56861656D01*
X72558856Y-56658296D01*
X72718635Y-56419169D01*
X72828693Y-56153466D01*
X72884800Y-55871397D01*
X72884800Y-55583803D01*
X72828693Y-55301734D01*
X72718635Y-55036031D01*
X72558856Y-54796904D01*
X72355496Y-54593544D01*
X72116369Y-54433765D01*
X71850666Y-54323707D01*
X71568597Y-54267600D01*
X71281003Y-54267600D01*
X70998934Y-54323707D01*
X70733231Y-54433765D01*
X70494104Y-54593544D01*
X70290744Y-54796904D01*
X70130965Y-55036031D01*
X70020907Y-55301734D01*
X69964800Y-55583803D01*
X67626674Y-55583803D01*
X67595226Y-55425702D01*
X67517205Y-55237344D01*
X67403937Y-55067826D01*
X67360000Y-55023889D01*
X67360000Y-54568711D01*
X67403937Y-54524774D01*
X67517205Y-54355256D01*
X67595226Y-54166898D01*
X67635000Y-53966939D01*
X67635000Y-53763061D01*
X67595226Y-53563102D01*
X67517205Y-53374744D01*
X67403937Y-53205226D01*
X67259774Y-53061063D01*
X67090256Y-52947795D01*
X66901898Y-52869774D01*
X66701939Y-52830000D01*
X66498061Y-52830000D01*
X66298102Y-52869774D01*
X66109744Y-52947795D01*
X65940226Y-53061063D01*
X65796063Y-53205226D01*
X65682795Y-53374744D01*
X65604774Y-53563102D01*
X65565000Y-53763061D01*
X50760000Y-53763061D01*
X50760000Y-51552600D01*
X69961728Y-51552600D01*
X69973988Y-51677082D01*
X70010298Y-51796780D01*
X70069263Y-51907094D01*
X70148615Y-52003785D01*
X70245306Y-52083137D01*
X70355620Y-52142102D01*
X70475318Y-52178412D01*
X70599800Y-52190672D01*
X71139050Y-52187600D01*
X71297800Y-52028850D01*
X71297800Y-50854600D01*
X71551800Y-50854600D01*
X71551800Y-52028850D01*
X71710550Y-52187600D01*
X72249800Y-52190672D01*
X72374282Y-52178412D01*
X72493980Y-52142102D01*
X72604294Y-52083137D01*
X72700985Y-52003785D01*
X72780337Y-51907094D01*
X72839302Y-51796780D01*
X72875612Y-51677082D01*
X72887872Y-51552600D01*
X72884800Y-51013350D01*
X72726050Y-50854600D01*
X71551800Y-50854600D01*
X71297800Y-50854600D01*
X70123550Y-50854600D01*
X69964800Y-51013350D01*
X69961728Y-51552600D01*
X50760000Y-51552600D01*
X50760000Y-49723711D01*
X50840226Y-49803937D01*
X51009744Y-49917205D01*
X51198102Y-49995226D01*
X51398061Y-50035000D01*
X51601939Y-50035000D01*
X51801898Y-49995226D01*
X51990256Y-49917205D01*
X52012113Y-49902600D01*
X69961728Y-49902600D01*
X69964800Y-50441850D01*
X70123550Y-50600600D01*
X71297800Y-50600600D01*
X71297800Y-49426350D01*
X71551800Y-49426350D01*
X71551800Y-50600600D01*
X72726050Y-50600600D01*
X72884800Y-50441850D01*
X72887872Y-49902600D01*
X72875612Y-49778118D01*
X72839302Y-49658420D01*
X72780337Y-49548106D01*
X72700985Y-49451415D01*
X72604294Y-49372063D01*
X72493980Y-49313098D01*
X72374282Y-49276788D01*
X72249800Y-49264528D01*
X71710550Y-49267600D01*
X71551800Y-49426350D01*
X71297800Y-49426350D01*
X71139050Y-49267600D01*
X70599800Y-49264528D01*
X70475318Y-49276788D01*
X70355620Y-49313098D01*
X70245306Y-49372063D01*
X70148615Y-49451415D01*
X70069263Y-49548106D01*
X70010298Y-49658420D01*
X69973988Y-49778118D01*
X69961728Y-49902600D01*
X52012113Y-49902600D01*
X52159774Y-49803937D01*
X52303937Y-49659774D01*
X52417205Y-49490256D01*
X52495226Y-49301898D01*
X52535000Y-49101939D01*
X52535000Y-48898061D01*
X52495226Y-48698102D01*
X52417205Y-48509744D01*
X52303937Y-48340226D01*
X52260000Y-48296289D01*
X52260000Y-46641211D01*
X52303937Y-46597274D01*
X52417205Y-46427756D01*
X52495226Y-46239398D01*
X52535000Y-46039439D01*
X52535000Y-45835561D01*
X52495226Y-45635602D01*
X52417205Y-45447244D01*
X52303937Y-45277726D01*
X52159774Y-45133563D01*
X51990256Y-45020295D01*
X51941260Y-45000000D01*
X51990256Y-44979705D01*
X52159774Y-44866437D01*
X52303937Y-44722274D01*
X52417205Y-44552756D01*
X52495226Y-44364398D01*
X52535000Y-44164439D01*
X52535000Y-43960561D01*
X52495226Y-43760602D01*
X52417205Y-43572244D01*
X52303937Y-43402726D01*
X52260000Y-43358789D01*
X52260000Y-39243711D01*
X52303937Y-39199774D01*
X52417205Y-39030256D01*
X52495226Y-38841898D01*
X52535000Y-38641939D01*
X52535000Y-38540000D01*
X56342743Y-38540000D01*
X56371705Y-38834051D01*
X56457476Y-39116802D01*
X56596762Y-39377387D01*
X56784208Y-39605792D01*
X57012613Y-39793238D01*
X57043972Y-39810000D01*
X57012613Y-39826762D01*
X56784208Y-40014208D01*
X56596762Y-40242613D01*
X56457476Y-40503198D01*
X56371705Y-40785949D01*
X56342743Y-41080000D01*
X56371705Y-41374051D01*
X56457476Y-41656802D01*
X56596762Y-41917387D01*
X56784208Y-42145792D01*
X57012613Y-42333238D01*
X57240001Y-42454780D01*
X57240001Y-42796288D01*
X57196063Y-42840226D01*
X57082795Y-43009744D01*
X57004774Y-43198102D01*
X56965000Y-43398061D01*
X56965000Y-43601939D01*
X57004774Y-43801898D01*
X57082795Y-43990256D01*
X57196063Y-44159774D01*
X57340226Y-44303937D01*
X57509744Y-44417205D01*
X57698102Y-44495226D01*
X57898061Y-44535000D01*
X58101939Y-44535000D01*
X58301898Y-44495226D01*
X58490256Y-44417205D01*
X58659774Y-44303937D01*
X58803937Y-44159774D01*
X58917205Y-43990256D01*
X58995226Y-43801898D01*
X59035000Y-43601939D01*
X59035000Y-43398061D01*
X58995226Y-43198102D01*
X58917205Y-43009744D01*
X58803937Y-42840226D01*
X58760000Y-42796289D01*
X58760000Y-42454779D01*
X58987387Y-42333238D01*
X59215792Y-42145792D01*
X59403238Y-41917387D01*
X59542524Y-41656802D01*
X59628295Y-41374051D01*
X59657257Y-41080000D01*
X59649378Y-41000000D01*
X61697694Y-41000000D01*
X61726849Y-41296012D01*
X61813192Y-41580648D01*
X61953406Y-41842970D01*
X62142103Y-42072897D01*
X62357903Y-42250000D01*
X62142103Y-42427103D01*
X61953406Y-42657030D01*
X61813192Y-42919352D01*
X61726849Y-43203988D01*
X61697694Y-43500000D01*
X61726849Y-43796012D01*
X61813192Y-44080648D01*
X61953406Y-44342970D01*
X62142103Y-44572897D01*
X62372030Y-44761594D01*
X62634352Y-44901808D01*
X62918988Y-44988151D01*
X63140822Y-45010000D01*
X65039178Y-45010000D01*
X65261012Y-44988151D01*
X65545648Y-44901808D01*
X65807970Y-44761594D01*
X66037897Y-44572897D01*
X66226594Y-44342970D01*
X66366808Y-44080648D01*
X66453151Y-43796012D01*
X66482306Y-43500000D01*
X66453151Y-43203988D01*
X66366808Y-42919352D01*
X66226594Y-42657030D01*
X66037897Y-42427103D01*
X65822097Y-42250000D01*
X66037897Y-42072897D01*
X66226594Y-41842970D01*
X66366808Y-41580648D01*
X66453151Y-41296012D01*
X66482306Y-41000000D01*
X66453151Y-40703988D01*
X66366808Y-40419352D01*
X66276288Y-40250000D01*
X67207928Y-40250000D01*
X67220188Y-40374482D01*
X67256498Y-40494180D01*
X67315463Y-40604494D01*
X67394815Y-40701185D01*
X67491506Y-40780537D01*
X67601820Y-40839502D01*
X67721518Y-40875812D01*
X67846000Y-40888072D01*
X68810250Y-40885000D01*
X68969000Y-40726250D01*
X68969000Y-38627000D01*
X69223000Y-38627000D01*
X69223000Y-40726250D01*
X69381750Y-40885000D01*
X70346000Y-40888072D01*
X70470482Y-40875812D01*
X70590180Y-40839502D01*
X70700494Y-40780537D01*
X70797185Y-40701185D01*
X70876537Y-40604494D01*
X70935502Y-40494180D01*
X70971812Y-40374482D01*
X70984072Y-40250000D01*
X70981000Y-38785750D01*
X70822250Y-38627000D01*
X69223000Y-38627000D01*
X68969000Y-38627000D01*
X67369750Y-38627000D01*
X67211000Y-38785750D01*
X67207928Y-40250000D01*
X66276288Y-40250000D01*
X66226594Y-40157030D01*
X66037897Y-39927103D01*
X65807970Y-39738406D01*
X65545648Y-39598192D01*
X65261012Y-39511849D01*
X65039178Y-39490000D01*
X63140822Y-39490000D01*
X62918988Y-39511849D01*
X62634352Y-39598192D01*
X62372030Y-39738406D01*
X62142103Y-39927103D01*
X61953406Y-40157030D01*
X61813192Y-40419352D01*
X61726849Y-40703988D01*
X61697694Y-41000000D01*
X59649378Y-41000000D01*
X59628295Y-40785949D01*
X59542524Y-40503198D01*
X59403238Y-40242613D01*
X59215792Y-40014208D01*
X58987387Y-39826762D01*
X58956028Y-39810000D01*
X58987387Y-39793238D01*
X59215792Y-39605792D01*
X59403238Y-39377387D01*
X59542524Y-39116802D01*
X59628295Y-38834051D01*
X59657257Y-38540000D01*
X59628295Y-38245949D01*
X59542524Y-37963198D01*
X59403238Y-37702613D01*
X59215792Y-37474208D01*
X59209970Y-37469430D01*
X59259180Y-37454502D01*
X59369494Y-37395537D01*
X59466185Y-37316185D01*
X59545537Y-37219494D01*
X59604502Y-37109180D01*
X59640812Y-36989482D01*
X59653072Y-36865000D01*
X59653072Y-35135000D01*
X59640812Y-35010518D01*
X59604502Y-34890820D01*
X59545537Y-34780506D01*
X59466185Y-34683815D01*
X59369494Y-34604463D01*
X59259180Y-34545498D01*
X59139482Y-34509188D01*
X59015000Y-34496928D01*
X58760000Y-34496928D01*
X58760000Y-34203711D01*
X58803937Y-34159774D01*
X58917205Y-33990256D01*
X58995226Y-33801898D01*
X59035000Y-33601939D01*
X59035000Y-33500000D01*
X61697694Y-33500000D01*
X61726849Y-33796012D01*
X61813192Y-34080648D01*
X61953406Y-34342970D01*
X62142103Y-34572897D01*
X62357903Y-34750000D01*
X62142103Y-34927103D01*
X61953406Y-35157030D01*
X61813192Y-35419352D01*
X61726849Y-35703988D01*
X61697694Y-36000000D01*
X61726849Y-36296012D01*
X61813192Y-36580648D01*
X61953406Y-36842970D01*
X62142103Y-37072897D01*
X62372030Y-37261594D01*
X62634352Y-37401808D01*
X62918988Y-37488151D01*
X63140822Y-37510000D01*
X65039178Y-37510000D01*
X65261012Y-37488151D01*
X65545648Y-37401808D01*
X65807970Y-37261594D01*
X66037897Y-37072897D01*
X66226594Y-36842970D01*
X66276287Y-36750000D01*
X67207928Y-36750000D01*
X67211000Y-38214250D01*
X67369750Y-38373000D01*
X68969000Y-38373000D01*
X68969000Y-36273750D01*
X69223000Y-36273750D01*
X69223000Y-38373000D01*
X70822250Y-38373000D01*
X70981000Y-38214250D01*
X70984072Y-36750000D01*
X70971812Y-36625518D01*
X70935502Y-36505820D01*
X70876537Y-36395506D01*
X70797185Y-36298815D01*
X70700494Y-36219463D01*
X70590180Y-36160498D01*
X70470482Y-36124188D01*
X70346000Y-36111928D01*
X69381750Y-36115000D01*
X69223000Y-36273750D01*
X68969000Y-36273750D01*
X68810250Y-36115000D01*
X67846000Y-36111928D01*
X67721518Y-36124188D01*
X67601820Y-36160498D01*
X67491506Y-36219463D01*
X67394815Y-36298815D01*
X67315463Y-36395506D01*
X67256498Y-36505820D01*
X67220188Y-36625518D01*
X67207928Y-36750000D01*
X66276287Y-36750000D01*
X66366808Y-36580648D01*
X66453151Y-36296012D01*
X66482306Y-36000000D01*
X66453151Y-35703988D01*
X66366808Y-35419352D01*
X66226594Y-35157030D01*
X66037897Y-34927103D01*
X65822097Y-34750000D01*
X66037897Y-34572897D01*
X66226594Y-34342970D01*
X66366808Y-34080648D01*
X66453151Y-33796012D01*
X66482306Y-33500000D01*
X66453151Y-33203988D01*
X66366808Y-32919352D01*
X66226594Y-32657030D01*
X66037897Y-32427103D01*
X65807970Y-32238406D01*
X65545648Y-32098192D01*
X65261012Y-32011849D01*
X65039178Y-31990000D01*
X63140822Y-31990000D01*
X62918988Y-32011849D01*
X62634352Y-32098192D01*
X62372030Y-32238406D01*
X62142103Y-32427103D01*
X61953406Y-32657030D01*
X61813192Y-32919352D01*
X61726849Y-33203988D01*
X61697694Y-33500000D01*
X59035000Y-33500000D01*
X59035000Y-33398061D01*
X58995226Y-33198102D01*
X58917205Y-33009744D01*
X58803937Y-32840226D01*
X58659774Y-32696063D01*
X58490256Y-32582795D01*
X58301898Y-32504774D01*
X58101939Y-32465000D01*
X57898061Y-32465000D01*
X57698102Y-32504774D01*
X57509744Y-32582795D01*
X57340226Y-32696063D01*
X57196063Y-32840226D01*
X57082795Y-33009744D01*
X57004774Y-33198102D01*
X56965000Y-33398061D01*
X56965000Y-33601939D01*
X57004774Y-33801898D01*
X57082795Y-33990256D01*
X57196063Y-34159774D01*
X57240000Y-34203711D01*
X57240000Y-34496928D01*
X56985000Y-34496928D01*
X56860518Y-34509188D01*
X56740820Y-34545498D01*
X56630506Y-34604463D01*
X56533815Y-34683815D01*
X56454463Y-34780506D01*
X56395498Y-34890820D01*
X56359188Y-35010518D01*
X56346928Y-35135000D01*
X56346928Y-36865000D01*
X56359188Y-36989482D01*
X56395498Y-37109180D01*
X56454463Y-37219494D01*
X56533815Y-37316185D01*
X56630506Y-37395537D01*
X56740820Y-37454502D01*
X56790030Y-37469430D01*
X56784208Y-37474208D01*
X56596762Y-37702613D01*
X56457476Y-37963198D01*
X56371705Y-38245949D01*
X56342743Y-38540000D01*
X52535000Y-38540000D01*
X52535000Y-38438061D01*
X52495226Y-38238102D01*
X52417205Y-38049744D01*
X52303937Y-37880226D01*
X52260000Y-37836289D01*
X52260000Y-32641211D01*
X52303937Y-32597274D01*
X52417205Y-32427756D01*
X52495226Y-32239398D01*
X52535000Y-32039439D01*
X52535000Y-31835561D01*
X52495226Y-31635602D01*
X52417205Y-31447244D01*
X52303937Y-31277726D01*
X52159774Y-31133563D01*
X51990256Y-31020295D01*
X51801898Y-30942274D01*
X51601939Y-30902500D01*
X51398061Y-30902500D01*
X51198102Y-30942274D01*
X51009744Y-31020295D01*
X50840226Y-31133563D01*
X50696063Y-31277726D01*
X50582795Y-31447244D01*
X50504774Y-31635602D01*
X50465000Y-31835561D01*
X50465000Y-32039439D01*
X50504774Y-32239398D01*
X50582795Y-32427756D01*
X50696063Y-32597274D01*
X50740000Y-32641211D01*
X50740001Y-37836288D01*
X50696063Y-37880226D01*
X50582795Y-38049744D01*
X50504774Y-38238102D01*
X50465000Y-38438061D01*
X50465000Y-38641939D01*
X50504774Y-38841898D01*
X50582795Y-39030256D01*
X50696063Y-39199774D01*
X50740000Y-39243711D01*
X50740001Y-43358788D01*
X50696063Y-43402726D01*
X50582795Y-43572244D01*
X50504774Y-43760602D01*
X50465000Y-43960561D01*
X50465000Y-44164439D01*
X50504774Y-44364398D01*
X50582795Y-44552756D01*
X50696063Y-44722274D01*
X50840226Y-44866437D01*
X51009744Y-44979705D01*
X51058740Y-45000000D01*
X51009744Y-45020295D01*
X50840226Y-45133563D01*
X50696063Y-45277726D01*
X50582795Y-45447244D01*
X50504774Y-45635602D01*
X50465000Y-45835561D01*
X50465000Y-46039439D01*
X50504774Y-46239398D01*
X50582795Y-46427756D01*
X50696063Y-46597274D01*
X50740000Y-46641211D01*
X50740001Y-48276290D01*
X50659774Y-48196063D01*
X50490256Y-48082795D01*
X50301898Y-48004774D01*
X50101939Y-47965000D01*
X49898061Y-47965000D01*
X49698102Y-48004774D01*
X49509744Y-48082795D01*
X49340226Y-48196063D01*
X49260000Y-48276289D01*
X49260000Y-46641211D01*
X49303937Y-46597274D01*
X49417205Y-46427756D01*
X49495226Y-46239398D01*
X49535000Y-46039439D01*
X49535000Y-45835561D01*
X49495226Y-45635602D01*
X49417205Y-45447244D01*
X49303937Y-45277726D01*
X49159774Y-45133563D01*
X48990256Y-45020295D01*
X48941260Y-45000000D01*
X48990256Y-44979705D01*
X49159774Y-44866437D01*
X49303937Y-44722274D01*
X49417205Y-44552756D01*
X49495226Y-44364398D01*
X49535000Y-44164439D01*
X49535000Y-43960561D01*
X49495226Y-43760602D01*
X49417205Y-43572244D01*
X49303937Y-43402726D01*
X49260000Y-43358789D01*
X49260000Y-38266211D01*
X49303937Y-38222274D01*
X49417205Y-38052756D01*
X49495226Y-37864398D01*
X49535000Y-37664439D01*
X49535000Y-37460561D01*
X49495226Y-37260602D01*
X49417205Y-37072244D01*
X49303937Y-36902726D01*
X49260000Y-36858789D01*
X49260000Y-32641211D01*
X49303937Y-32597274D01*
X49417205Y-32427756D01*
X49495226Y-32239398D01*
X49535000Y-32039439D01*
X49535000Y-31835561D01*
X49495226Y-31635602D01*
X49417205Y-31447244D01*
X49303937Y-31277726D01*
X49159774Y-31133563D01*
X48990256Y-31020295D01*
X48801898Y-30942274D01*
X48601939Y-30902500D01*
X48398061Y-30902500D01*
X48198102Y-30942274D01*
X48009744Y-31020295D01*
X47840226Y-31133563D01*
X47696063Y-31277726D01*
X47582795Y-31447244D01*
X47504774Y-31635602D01*
X47465000Y-31835561D01*
X44260000Y-31835561D01*
X44260000Y-27703711D01*
X44303937Y-27659774D01*
X44417205Y-27490256D01*
X44495226Y-27301898D01*
X44535000Y-27101939D01*
X44535000Y-26898061D01*
X48965000Y-26898061D01*
X48965000Y-27101939D01*
X49004774Y-27301898D01*
X49082795Y-27490256D01*
X49196063Y-27659774D01*
X49240000Y-27703711D01*
X49240001Y-29358788D01*
X49196063Y-29402726D01*
X49082795Y-29572244D01*
X49004774Y-29760602D01*
X48965000Y-29960561D01*
X48965000Y-30164439D01*
X49004774Y-30364398D01*
X49082795Y-30552756D01*
X49196063Y-30722274D01*
X49340226Y-30866437D01*
X49509744Y-30979705D01*
X49698102Y-31057726D01*
X49898061Y-31097500D01*
X50101939Y-31097500D01*
X50301898Y-31057726D01*
X50490256Y-30979705D01*
X50659774Y-30866437D01*
X50803937Y-30722274D01*
X50917205Y-30552756D01*
X50995226Y-30364398D01*
X51035000Y-30164439D01*
X51035000Y-29960561D01*
X50995226Y-29760602D01*
X50917205Y-29572244D01*
X50803937Y-29402726D01*
X50760000Y-29358789D01*
X50760000Y-27703711D01*
X50803937Y-27659774D01*
X50917205Y-27490256D01*
X50995226Y-27301898D01*
X51035000Y-27101939D01*
X51035000Y-26898061D01*
X50995226Y-26698102D01*
X50917205Y-26509744D01*
X50803937Y-26340226D01*
X50659774Y-26196063D01*
X50490256Y-26082795D01*
X50301898Y-26004774D01*
X50101939Y-25965000D01*
X49898061Y-25965000D01*
X49698102Y-26004774D01*
X49509744Y-26082795D01*
X49340226Y-26196063D01*
X49196063Y-26340226D01*
X49082795Y-26509744D01*
X49004774Y-26698102D01*
X48965000Y-26898061D01*
X44535000Y-26898061D01*
X44495226Y-26698102D01*
X44417205Y-26509744D01*
X44303937Y-26340226D01*
X44159774Y-26196063D01*
X43990256Y-26082795D01*
X43801898Y-26004774D01*
X43601939Y-25965000D01*
X43398061Y-25965000D01*
X43198102Y-26004774D01*
X43009744Y-26082795D01*
X42840226Y-26196063D01*
X42750000Y-26286289D01*
X42659774Y-26196063D01*
X42490256Y-26082795D01*
X42301898Y-26004774D01*
X42101939Y-25965000D01*
X41898061Y-25965000D01*
X41698102Y-26004774D01*
X41509744Y-26082795D01*
X41340226Y-26196063D01*
X41196063Y-26340226D01*
X41082795Y-26509744D01*
X41004774Y-26698102D01*
X40965000Y-26898061D01*
X39792266Y-26898061D01*
X39773151Y-26703988D01*
X39686808Y-26419352D01*
X39546594Y-26157030D01*
X39357897Y-25927103D01*
X39127970Y-25738406D01*
X38981283Y-25660000D01*
X75490058Y-25660000D01*
X75539141Y-63398800D01*
X25660000Y-63398800D01*
X25660000Y-57648061D01*
X41965000Y-57648061D01*
X41965000Y-57851939D01*
X42004774Y-58051898D01*
X42082795Y-58240256D01*
X42196063Y-58409774D01*
X42340226Y-58553937D01*
X42509744Y-58667205D01*
X42698102Y-58745226D01*
X42898061Y-58785000D01*
X43101939Y-58785000D01*
X43301898Y-58745226D01*
X43490256Y-58667205D01*
X43659774Y-58553937D01*
X43803937Y-58409774D01*
X43917205Y-58240256D01*
X43995226Y-58051898D01*
X44035000Y-57851939D01*
X44035000Y-57648061D01*
X43995226Y-57448102D01*
X43917205Y-57259744D01*
X43803937Y-57090226D01*
X43659774Y-56946063D01*
X43490256Y-56832795D01*
X43301898Y-56754774D01*
X43101939Y-56715000D01*
X42898061Y-56715000D01*
X42698102Y-56754774D01*
X42509744Y-56832795D01*
X42340226Y-56946063D01*
X42196063Y-57090226D01*
X42082795Y-57259744D01*
X42004774Y-57448102D01*
X41965000Y-57648061D01*
X25660000Y-57648061D01*
X25660000Y-52500000D01*
X35017694Y-52500000D01*
X35046849Y-52796012D01*
X35133192Y-53080648D01*
X35273406Y-53342970D01*
X35462103Y-53572897D01*
X35677903Y-53750000D01*
X35462103Y-53927103D01*
X35273406Y-54157030D01*
X35133192Y-54419352D01*
X35046849Y-54703988D01*
X35017694Y-55000000D01*
X35046849Y-55296012D01*
X35133192Y-55580648D01*
X35273406Y-55842970D01*
X35462103Y-56072897D01*
X35692030Y-56261594D01*
X35954352Y-56401808D01*
X36238988Y-56488151D01*
X36460822Y-56510000D01*
X38359178Y-56510000D01*
X38581012Y-56488151D01*
X38865648Y-56401808D01*
X39127970Y-56261594D01*
X39357897Y-56072897D01*
X39546594Y-55842970D01*
X39686808Y-55580648D01*
X39773151Y-55296012D01*
X39802306Y-55000000D01*
X39773151Y-54703988D01*
X39686808Y-54419352D01*
X39546594Y-54157030D01*
X39357897Y-53927103D01*
X39142097Y-53750000D01*
X39357897Y-53572897D01*
X39546594Y-53342970D01*
X39686808Y-53080648D01*
X39773151Y-52796012D01*
X39802306Y-52500000D01*
X39773151Y-52203988D01*
X39686808Y-51919352D01*
X39546594Y-51657030D01*
X39357897Y-51427103D01*
X39127970Y-51238406D01*
X38865648Y-51098192D01*
X38581012Y-51011849D01*
X38359178Y-50990000D01*
X36460822Y-50990000D01*
X36238988Y-51011849D01*
X35954352Y-51098192D01*
X35692030Y-51238406D01*
X35462103Y-51427103D01*
X35273406Y-51657030D01*
X35133192Y-51919352D01*
X35046849Y-52203988D01*
X35017694Y-52500000D01*
X25660000Y-52500000D01*
X25660000Y-51750000D01*
X30515928Y-51750000D01*
X30528188Y-51874482D01*
X30564498Y-51994180D01*
X30623463Y-52104494D01*
X30702815Y-52201185D01*
X30799506Y-52280537D01*
X30909820Y-52339502D01*
X31029518Y-52375812D01*
X31154000Y-52388072D01*
X32118250Y-52385000D01*
X32277000Y-52226250D01*
X32277000Y-50127000D01*
X32531000Y-50127000D01*
X32531000Y-52226250D01*
X32689750Y-52385000D01*
X33654000Y-52388072D01*
X33778482Y-52375812D01*
X33898180Y-52339502D01*
X34008494Y-52280537D01*
X34105185Y-52201185D01*
X34184537Y-52104494D01*
X34243502Y-51994180D01*
X34279812Y-51874482D01*
X34292072Y-51750000D01*
X34290154Y-50835561D01*
X39965000Y-50835561D01*
X39965000Y-51039439D01*
X40004774Y-51239398D01*
X40082795Y-51427756D01*
X40196063Y-51597274D01*
X40240000Y-51641211D01*
X40240001Y-54327588D01*
X40196063Y-54371526D01*
X40082795Y-54541044D01*
X40004774Y-54729402D01*
X39965000Y-54929361D01*
X39965000Y-55133239D01*
X40004774Y-55333198D01*
X40082795Y-55521556D01*
X40196063Y-55691074D01*
X40340226Y-55835237D01*
X40509744Y-55948505D01*
X40698102Y-56026526D01*
X40898061Y-56066300D01*
X41101939Y-56066300D01*
X41301898Y-56026526D01*
X41490256Y-55948505D01*
X41659774Y-55835237D01*
X41803937Y-55691074D01*
X41917205Y-55521556D01*
X41995226Y-55333198D01*
X42035000Y-55133239D01*
X42035000Y-54929361D01*
X41995226Y-54729402D01*
X41917205Y-54541044D01*
X41803937Y-54371526D01*
X41760000Y-54327589D01*
X41760000Y-51641211D01*
X41803937Y-51597274D01*
X41917205Y-51427756D01*
X41995226Y-51239398D01*
X42035000Y-51039439D01*
X42035000Y-50835561D01*
X41995226Y-50635602D01*
X41917205Y-50447244D01*
X41803937Y-50277726D01*
X41659774Y-50133563D01*
X41490256Y-50020295D01*
X41301898Y-49942274D01*
X41101939Y-49902500D01*
X40898061Y-49902500D01*
X40698102Y-49942274D01*
X40509744Y-50020295D01*
X40340226Y-50133563D01*
X40196063Y-50277726D01*
X40082795Y-50447244D01*
X40004774Y-50635602D01*
X39965000Y-50835561D01*
X34290154Y-50835561D01*
X34289000Y-50285750D01*
X34130250Y-50127000D01*
X32531000Y-50127000D01*
X32277000Y-50127000D01*
X30677750Y-50127000D01*
X30519000Y-50285750D01*
X30515928Y-51750000D01*
X25660000Y-51750000D01*
X25660000Y-49898061D01*
X44565000Y-49898061D01*
X44565000Y-50101939D01*
X44604774Y-50301898D01*
X44682795Y-50490256D01*
X44796063Y-50659774D01*
X44840000Y-50703711D01*
X44840001Y-53161288D01*
X44796063Y-53205226D01*
X44682795Y-53374744D01*
X44604774Y-53563102D01*
X44565000Y-53763061D01*
X44565000Y-53966939D01*
X44604774Y-54166898D01*
X44682795Y-54355256D01*
X44796063Y-54524774D01*
X44940226Y-54668937D01*
X45109744Y-54782205D01*
X45298102Y-54860226D01*
X45498061Y-54900000D01*
X45701939Y-54900000D01*
X45901898Y-54860226D01*
X46090256Y-54782205D01*
X46259774Y-54668937D01*
X46403937Y-54524774D01*
X46517205Y-54355256D01*
X46595226Y-54166898D01*
X46635000Y-53966939D01*
X46635000Y-53763061D01*
X46595226Y-53563102D01*
X46517205Y-53374744D01*
X46403937Y-53205226D01*
X46360000Y-53161289D01*
X46360000Y-50703711D01*
X46403937Y-50659774D01*
X46517205Y-50490256D01*
X46595226Y-50301898D01*
X46635000Y-50101939D01*
X46635000Y-49898061D01*
X46595226Y-49698102D01*
X46517205Y-49509744D01*
X46403937Y-49340226D01*
X46259774Y-49196063D01*
X46090256Y-49082795D01*
X45901898Y-49004774D01*
X45701939Y-48965000D01*
X45498061Y-48965000D01*
X45298102Y-49004774D01*
X45109744Y-49082795D01*
X44940226Y-49196063D01*
X44796063Y-49340226D01*
X44682795Y-49509744D01*
X44604774Y-49698102D01*
X44565000Y-49898061D01*
X25660000Y-49898061D01*
X25660000Y-48250000D01*
X30515928Y-48250000D01*
X30519000Y-49714250D01*
X30677750Y-49873000D01*
X32277000Y-49873000D01*
X32277000Y-47773750D01*
X32531000Y-47773750D01*
X32531000Y-49873000D01*
X34130250Y-49873000D01*
X34289000Y-49714250D01*
X34292072Y-48250000D01*
X34279812Y-48125518D01*
X34243502Y-48005820D01*
X34184537Y-47895506D01*
X34105185Y-47798815D01*
X34008494Y-47719463D01*
X33898180Y-47660498D01*
X33778482Y-47624188D01*
X33654000Y-47611928D01*
X32689750Y-47615000D01*
X32531000Y-47773750D01*
X32277000Y-47773750D01*
X32118250Y-47615000D01*
X31154000Y-47611928D01*
X31029518Y-47624188D01*
X30909820Y-47660498D01*
X30799506Y-47719463D01*
X30702815Y-47798815D01*
X30623463Y-47895506D01*
X30564498Y-48005820D01*
X30528188Y-48125518D01*
X30515928Y-48250000D01*
X25660000Y-48250000D01*
X25660000Y-45000000D01*
X35017694Y-45000000D01*
X35046849Y-45296012D01*
X35133192Y-45580648D01*
X35273406Y-45842970D01*
X35462103Y-46072897D01*
X35677903Y-46250000D01*
X35462103Y-46427103D01*
X35273406Y-46657030D01*
X35133192Y-46919352D01*
X35046849Y-47203988D01*
X35017694Y-47500000D01*
X35046849Y-47796012D01*
X35133192Y-48080648D01*
X35273406Y-48342970D01*
X35462103Y-48572897D01*
X35692030Y-48761594D01*
X35954352Y-48901808D01*
X36238988Y-48988151D01*
X36460822Y-49010000D01*
X38359178Y-49010000D01*
X38581012Y-48988151D01*
X38865648Y-48901808D01*
X39127970Y-48761594D01*
X39357897Y-48572897D01*
X39546594Y-48342970D01*
X39686808Y-48080648D01*
X39773151Y-47796012D01*
X39802306Y-47500000D01*
X39773151Y-47203988D01*
X39686808Y-46919352D01*
X39546594Y-46657030D01*
X39357897Y-46427103D01*
X39142097Y-46250000D01*
X39357897Y-46072897D01*
X39546594Y-45842970D01*
X39686808Y-45580648D01*
X39773151Y-45296012D01*
X39802306Y-45000000D01*
X39773151Y-44703988D01*
X39686808Y-44419352D01*
X39546594Y-44157030D01*
X39357897Y-43927103D01*
X39127970Y-43738406D01*
X38865648Y-43598192D01*
X38581012Y-43511849D01*
X38359178Y-43490000D01*
X36460822Y-43490000D01*
X36238988Y-43511849D01*
X35954352Y-43598192D01*
X35692030Y-43738406D01*
X35462103Y-43927103D01*
X35273406Y-44157030D01*
X35133192Y-44419352D01*
X35046849Y-44703988D01*
X35017694Y-45000000D01*
X25660000Y-45000000D01*
X25660000Y-34500000D01*
X35017694Y-34500000D01*
X35046849Y-34796012D01*
X35133192Y-35080648D01*
X35273406Y-35342970D01*
X35462103Y-35572897D01*
X35677903Y-35750000D01*
X35462103Y-35927103D01*
X35273406Y-36157030D01*
X35133192Y-36419352D01*
X35046849Y-36703988D01*
X35017694Y-37000000D01*
X35046849Y-37296012D01*
X35133192Y-37580648D01*
X35273406Y-37842970D01*
X35462103Y-38072897D01*
X35692030Y-38261594D01*
X35954352Y-38401808D01*
X36238988Y-38488151D01*
X36460822Y-38510000D01*
X38359178Y-38510000D01*
X38581012Y-38488151D01*
X38865648Y-38401808D01*
X39127970Y-38261594D01*
X39357897Y-38072897D01*
X39546594Y-37842970D01*
X39686808Y-37580648D01*
X39773151Y-37296012D01*
X39802306Y-37000000D01*
X39773151Y-36703988D01*
X39686808Y-36419352D01*
X39546594Y-36157030D01*
X39357897Y-35927103D01*
X39142097Y-35750000D01*
X39357897Y-35572897D01*
X39546594Y-35342970D01*
X39686808Y-35080648D01*
X39773151Y-34796012D01*
X39802306Y-34500000D01*
X39773151Y-34203988D01*
X39686808Y-33919352D01*
X39546594Y-33657030D01*
X39357897Y-33427103D01*
X39127970Y-33238406D01*
X38865648Y-33098192D01*
X38581012Y-33011849D01*
X38359178Y-32990000D01*
X36460822Y-32990000D01*
X36238988Y-33011849D01*
X35954352Y-33098192D01*
X35692030Y-33238406D01*
X35462103Y-33427103D01*
X35273406Y-33657030D01*
X35133192Y-33919352D01*
X35046849Y-34203988D01*
X35017694Y-34500000D01*
X25660000Y-34500000D01*
X25660000Y-33750000D01*
X30515928Y-33750000D01*
X30528188Y-33874482D01*
X30564498Y-33994180D01*
X30623463Y-34104494D01*
X30702815Y-34201185D01*
X30799506Y-34280537D01*
X30909820Y-34339502D01*
X31029518Y-34375812D01*
X31154000Y-34388072D01*
X32118250Y-34385000D01*
X32277000Y-34226250D01*
X32277000Y-32127000D01*
X32531000Y-32127000D01*
X32531000Y-34226250D01*
X32689750Y-34385000D01*
X33654000Y-34388072D01*
X33778482Y-34375812D01*
X33898180Y-34339502D01*
X34008494Y-34280537D01*
X34105185Y-34201185D01*
X34184537Y-34104494D01*
X34243502Y-33994180D01*
X34279812Y-33874482D01*
X34292072Y-33750000D01*
X34289000Y-32285750D01*
X34130250Y-32127000D01*
X32531000Y-32127000D01*
X32277000Y-32127000D01*
X30677750Y-32127000D01*
X30519000Y-32285750D01*
X30515928Y-33750000D01*
X25660000Y-33750000D01*
X25660000Y-30250000D01*
X30515928Y-30250000D01*
X30519000Y-31714250D01*
X30677750Y-31873000D01*
X32277000Y-31873000D01*
X32277000Y-29773750D01*
X32531000Y-29773750D01*
X32531000Y-31873000D01*
X34130250Y-31873000D01*
X34289000Y-31714250D01*
X34292072Y-30250000D01*
X34279812Y-30125518D01*
X34243502Y-30005820D01*
X34184537Y-29895506D01*
X34105185Y-29798815D01*
X34008494Y-29719463D01*
X33898180Y-29660498D01*
X33778482Y-29624188D01*
X33654000Y-29611928D01*
X32689750Y-29615000D01*
X32531000Y-29773750D01*
X32277000Y-29773750D01*
X32118250Y-29615000D01*
X31154000Y-29611928D01*
X31029518Y-29624188D01*
X30909820Y-29660498D01*
X30799506Y-29719463D01*
X30702815Y-29798815D01*
X30623463Y-29895506D01*
X30564498Y-30005820D01*
X30528188Y-30125518D01*
X30515928Y-30250000D01*
X25660000Y-30250000D01*
X25660000Y-25660000D01*
X35838717Y-25660000D01*
X35692030Y-25738406D01*
M02*
